<?xml version="1.0" encoding="UTF-8" standalone="no"?>
<!DOCTYPE svg PUBLIC "-//W3C//DTD SVG 1.1//EN" "http://www.w3.org/Graphics/SVG/1.1/DTD/svg11.dtd">
<svg width="100%" height="100%" viewBox="0 0 3308 820" version="1.1" xmlns="http://www.w3.org/2000/svg" xmlns:xlink="http://www.w3.org/1999/xlink" xml:space="preserve" xmlns:serif="http://www.serif.com/" style="fill-rule:evenodd;clip-rule:evenodd;stroke-linejoin:round;stroke-miterlimit:2;">
    <g>
        <g transform="matrix(1,0,0,1,-8.85212,-43.8998)">
            <g id="AHK-WinSpy" transform="matrix(1.84005,0,0,1.40909,-813.38,-1039.32)">
                <g>
                    <path d="M541.046,1094.41L534.015,1126.35L584.761,1126.35L577.729,1094.41C574.876,1080.58 571.921,1066.4 568.864,1051.9C565.807,1037.4 562.852,1022.83 559.999,1008.19L558.776,1008.19C555.923,1022.83 553.019,1037.4 550.064,1051.9C547.109,1066.4 544.103,1080.58 541.046,1094.41ZM474.403,1233.33L539.211,972.261L580.786,972.261L645.595,1233.33L607.994,1233.33L592.709,1162.68L526.066,1162.68L510.476,1233.33L474.403,1233.33Z" style="fill-rule:nonzero;"/>
                    <path d="M658.434,1233.33L658.434,972.261L693.895,972.261L693.895,1077.25L762.371,1077.25L762.371,972.261L797.833,972.261L797.833,1233.33L762.371,1233.33L762.371,1117.57L693.895,1117.57L693.895,1233.33L658.434,1233.33Z" style="fill-rule:nonzero;"/>
                    <path d="M829.625,1233.33L829.625,972.261L865.698,972.261L865.698,1090.82L866.615,1090.82L937.843,972.261L977.583,972.261L915.832,1073.66L984.003,1233.33L944.568,1233.33L894.128,1109.18L865.698,1156.29L865.698,1233.33L829.625,1233.33Z" style="fill-rule:nonzero;"/>
                    <rect x="996.537" y="1084.83" width="135.73" height="33.532" style="fill-rule:nonzero;"/>
                    <path d="M1186.68,1233.33L1158.25,972.261L1196.16,972.261L1206.25,1123.56C1206.86,1134.47 1207.37,1144.58 1207.78,1153.89C1208.18,1163.21 1208.59,1173.99 1209,1186.23L1209.91,1186.23C1211.55,1173.99 1213.12,1163.21 1214.65,1153.89C1216.18,1144.58 1217.86,1134.47 1219.7,1123.56L1236.2,1038.93L1262.8,1038.93L1278.39,1123.56C1280.43,1134.47 1282.16,1144.51 1283.59,1153.69C1285.01,1162.88 1286.54,1173.72 1288.17,1186.23L1289.4,1186.23C1289.8,1173.72 1290.16,1162.88 1290.47,1153.69C1290.77,1144.51 1291.23,1134.47 1291.84,1123.56L1301.62,972.261L1337.39,972.261L1310.49,1233.33L1270.44,1233.33L1254.85,1140.72C1253.43,1132.47 1252.15,1124.29 1251.03,1116.17C1249.91,1108.05 1249.04,1100 1248.43,1092.02L1247.52,1092.02C1246.5,1100 1245.58,1108.05 1244.76,1116.17C1243.95,1124.29 1242.83,1132.47 1241.4,1140.72L1226.12,1233.33L1186.68,1233.33Z" style="fill-rule:nonzero;"/>
                    <path d="M1415.95,1233.33L1415.95,1073.66L1350.84,1073.66L1350.84,1037.33L1451.11,1037.33L1451.11,1233.33L1415.95,1233.33ZM1431.24,1001.4C1424.11,1001.4 1418.15,998.608 1413.36,993.019C1408.57,987.43 1406.17,979.979 1406.17,970.664C1406.17,961.35 1408.57,953.832 1413.36,948.11C1418.15,942.388 1424.11,939.527 1431.24,939.527C1438.37,939.527 1444.33,942.388 1449.12,948.11C1453.91,953.832 1456.31,961.35 1456.31,970.664C1456.31,979.979 1453.91,987.43 1449.12,993.019C1444.33,998.608 1438.37,1001.4 1431.24,1001.4Z" style="fill-rule:nonzero;"/>
                    <path d="M1519.28,1233.33L1519.28,1037.33L1548.32,1037.33L1551.07,1066.87L1552.3,1066.87C1559.43,1057.56 1567.33,1049.51 1575.99,1042.72C1584.65,1035.93 1594.79,1032.54 1606.41,1032.54C1623.73,1032.54 1636.47,1039.39 1644.62,1053.1C1652.77,1066.8 1656.85,1086.43 1656.85,1111.98L1656.85,1233.33L1621.38,1233.33L1621.38,1117.97C1621.38,1102 1619.3,1090.36 1615.12,1083.04C1610.94,1075.72 1603.65,1072.06 1593.26,1072.06C1585.92,1072.06 1579.4,1074.32 1573.7,1078.85C1567.99,1083.37 1561.67,1090.29 1554.74,1099.6L1554.74,1233.33L1519.28,1233.33Z" style="fill-rule:nonzero;"/>
                    <path d="M1755.59,1238.12C1741.53,1238.12 1728.07,1234.8 1715.23,1228.14C1702.39,1221.49 1690.98,1212.04 1681,1199.8L1701.78,1168.27C1709.32,1177.05 1717.88,1184.17 1727.46,1189.62C1737.04,1195.08 1747.13,1197.81 1757.73,1197.81C1769.34,1197.81 1778.21,1194.88 1784.32,1189.02C1790.44,1183.17 1793.49,1175.58 1793.49,1166.27C1793.49,1160.41 1792.68,1155.56 1791.05,1151.7C1789.42,1147.84 1787.12,1144.45 1784.17,1141.52C1781.21,1138.59 1777.65,1135.93 1773.47,1133.54C1769.29,1131.14 1764.76,1128.61 1759.87,1125.95L1732.66,1110.38C1727.36,1107.72 1722.16,1104.39 1717.07,1100.4C1711.97,1096.41 1707.39,1091.62 1703.31,1086.03C1699.24,1080.44 1695.98,1073.92 1693.53,1066.47C1691.08,1059.02 1689.86,1050.5 1689.86,1040.92C1689.86,1030.54 1691.59,1020.9 1695.06,1011.98C1698.52,1003.07 1703.31,995.281 1709.43,988.628C1715.54,981.975 1722.83,976.785 1731.28,973.059C1739.74,969.334 1749.07,967.471 1759.26,967.471C1771.48,967.471 1783.15,970.465 1794.26,976.452C1805.37,982.44 1815.1,990.491 1823.45,1000.6L1805.11,1030.14C1798.38,1023.23 1791.3,1017.77 1783.86,1013.78C1776.42,1009.78 1767.61,1007.79 1757.42,1007.79C1747.84,1007.79 1740.15,1010.45 1734.34,1015.77C1728.53,1021.1 1725.63,1028.68 1725.63,1038.53C1725.63,1043.58 1726.55,1047.91 1728.38,1051.5C1730.21,1055.09 1732.71,1058.29 1735.87,1061.08C1739.03,1063.88 1742.7,1066.34 1746.87,1068.47C1751.05,1070.6 1755.38,1072.86 1759.87,1075.25L1786.16,1090.02C1792.47,1093.22 1798.28,1096.94 1803.58,1101.2C1808.88,1105.46 1813.47,1110.38 1817.34,1115.97C1821.21,1121.56 1824.22,1128.01 1826.36,1135.33C1828.5,1142.65 1829.57,1151.1 1829.57,1160.68C1829.57,1171.33 1827.88,1181.31 1824.52,1190.62C1821.16,1199.93 1816.32,1208.12 1810,1215.17C1803.68,1222.22 1795.94,1227.81 1786.77,1231.94C1777.6,1236.06 1767.2,1238.12 1755.59,1238.12Z" style="fill-rule:nonzero;"/>
                    <path d="M1871.75,1310.78L1871.75,1037.33L1900.79,1037.33L1903.55,1059.68L1904.46,1059.68C1910.98,1051.97 1918.47,1045.51 1926.93,1040.32C1935.39,1035.13 1943.9,1032.54 1952.46,1032.54C1962.24,1032.54 1970.95,1034.87 1978.59,1039.53C1986.24,1044.18 1992.66,1050.9 1997.85,1059.68C2003.05,1068.47 2007.02,1078.98 2009.78,1091.22C2012.53,1103.46 2013.9,1117.17 2013.9,1132.34C2013.9,1149.1 2012.07,1164.07 2008.4,1177.25C2004.73,1190.42 1999.79,1201.46 1993.57,1210.38C1987.36,1219.3 1980.22,1226.15 1972.17,1230.94C1964.12,1235.73 1955.82,1238.12 1947.26,1238.12C1940.33,1238.12 1933.25,1236.13 1926.01,1232.14C1918.78,1228.14 1912.21,1222.42 1906.3,1214.97L1905.38,1214.97L1907.21,1249.3L1907.21,1310.78L1871.75,1310.78ZM1939.92,1200.2C1950.72,1200.2 1959.69,1194.55 1966.82,1183.24C1973.96,1171.92 1977.52,1155.09 1977.52,1132.74C1977.52,1113.04 1974.77,1097.74 1969.27,1086.83C1963.77,1075.92 1954.9,1070.46 1942.67,1070.46C1936.97,1070.46 1931.16,1072.33 1925.25,1076.05C1919.34,1079.78 1913.33,1085.77 1907.21,1094.02L1907.21,1182.24C1912.72,1188.89 1918.37,1193.55 1924.18,1196.21C1929.99,1198.87 1935.24,1200.2 1939.92,1200.2Z" style="fill-rule:nonzero;"/>
                    <path d="M2071.99,1313.97C2067.91,1313.97 2064.04,1313.64 2060.37,1312.97C2056.7,1312.31 2053.44,1311.31 2050.59,1309.98L2057.31,1274.05C2059.35,1274.85 2061.39,1275.52 2063.43,1276.05C2065.46,1276.58 2067.6,1276.85 2069.85,1276.85C2079.42,1276.85 2087.07,1273.72 2092.77,1267.46C2098.48,1261.21 2102.86,1253.16 2105.92,1243.31L2109.59,1230.94L2042.33,1037.33L2077.49,1037.33L2108.36,1133.54C2111.22,1142.32 2113.97,1151.63 2116.62,1161.48C2119.27,1171.33 2122.02,1181.17 2124.87,1191.02L2126.09,1191.02C2128.34,1181.7 2130.78,1172.12 2133.43,1162.28C2136.08,1152.43 2138.63,1142.85 2141.07,1133.54L2168.28,1037.33L2201.6,1037.33L2138.93,1242.12C2135.67,1253.29 2132.05,1263.27 2128.08,1272.06C2124.11,1280.84 2119.47,1288.36 2114.17,1294.61C2108.87,1300.86 2102.76,1305.65 2095.83,1308.98C2088.9,1312.31 2080.95,1313.97 2071.99,1313.97Z" style="fill-rule:nonzero;"/>
                </g>
                <g>
                    <path d="M541.046,1094.41L534.015,1126.35L584.761,1126.35L577.729,1094.41C574.876,1080.58 571.921,1066.4 568.864,1051.9C565.807,1037.4 562.852,1022.83 559.999,1008.19L558.776,1008.19C555.923,1022.83 553.019,1037.4 550.064,1051.9C547.109,1066.4 544.103,1080.58 541.046,1094.41ZM474.403,1233.33L539.211,972.261L580.786,972.261L645.595,1233.33L607.994,1233.33L592.709,1162.68L526.066,1162.68L510.476,1233.33L474.403,1233.33Z" style="fill-rule:nonzero;"/>
                    <path d="M658.434,1233.33L658.434,972.261L693.895,972.261L693.895,1077.25L762.371,1077.25L762.371,972.261L797.833,972.261L797.833,1233.33L762.371,1233.33L762.371,1117.57L693.895,1117.57L693.895,1233.33L658.434,1233.33Z" style="fill-rule:nonzero;"/>
                    <path d="M829.625,1233.33L829.625,972.261L865.698,972.261L865.698,1090.82L866.615,1090.82L937.843,972.261L977.583,972.261L915.832,1073.66L984.003,1233.33L944.568,1233.33L894.128,1109.18L865.698,1156.29L865.698,1233.33L829.625,1233.33Z" style="fill-rule:nonzero;"/>
                    <rect x="996.537" y="1084.83" width="135.73" height="33.532" style="fill-rule:nonzero;"/>
                    <path d="M1186.68,1233.33L1158.25,972.261L1196.16,972.261L1206.25,1123.56C1206.86,1134.47 1207.37,1144.58 1207.78,1153.89C1208.18,1163.21 1208.59,1173.99 1209,1186.23L1209.91,1186.23C1211.55,1173.99 1213.12,1163.21 1214.65,1153.89C1216.18,1144.58 1217.86,1134.47 1219.7,1123.56L1236.2,1038.93L1262.8,1038.93L1278.39,1123.56C1280.43,1134.47 1282.16,1144.51 1283.59,1153.69C1285.01,1162.88 1286.54,1173.72 1288.17,1186.23L1289.4,1186.23C1289.8,1173.72 1290.16,1162.88 1290.47,1153.69C1290.77,1144.51 1291.23,1134.47 1291.84,1123.56L1301.62,972.261L1337.39,972.261L1310.49,1233.33L1270.44,1233.33L1254.85,1140.72C1253.43,1132.47 1252.15,1124.29 1251.03,1116.17C1249.91,1108.05 1249.04,1100 1248.43,1092.02L1247.52,1092.02C1246.5,1100 1245.58,1108.05 1244.76,1116.17C1243.95,1124.29 1242.83,1132.47 1241.4,1140.72L1226.12,1233.33L1186.68,1233.33Z" style="fill-rule:nonzero;"/>
                    <path d="M1415.95,1233.33L1415.95,1073.66L1350.84,1073.66L1350.84,1037.33L1451.11,1037.33L1451.11,1233.33L1415.95,1233.33ZM1431.24,1001.4C1424.11,1001.4 1418.15,998.608 1413.36,993.019C1408.57,987.43 1406.17,979.979 1406.17,970.664C1406.17,961.35 1408.57,953.832 1413.36,948.11C1418.15,942.388 1424.11,939.527 1431.24,939.527C1438.37,939.527 1444.33,942.388 1449.12,948.11C1453.91,953.832 1456.31,961.35 1456.31,970.664C1456.31,979.979 1453.91,987.43 1449.12,993.019C1444.33,998.608 1438.37,1001.4 1431.24,1001.4Z" style="fill-rule:nonzero;"/>
                    <path d="M1519.28,1233.33L1519.28,1037.33L1548.32,1037.33L1551.07,1066.87L1552.3,1066.87C1559.43,1057.56 1567.33,1049.51 1575.99,1042.72C1584.65,1035.93 1594.79,1032.54 1606.41,1032.54C1623.73,1032.54 1636.47,1039.39 1644.62,1053.1C1652.77,1066.8 1656.85,1086.43 1656.85,1111.98L1656.85,1233.33L1621.38,1233.33L1621.38,1117.97C1621.38,1102 1619.3,1090.36 1615.12,1083.04C1610.94,1075.72 1603.65,1072.06 1593.26,1072.06C1585.92,1072.06 1579.4,1074.32 1573.7,1078.85C1567.99,1083.37 1561.67,1090.29 1554.74,1099.6L1554.74,1233.33L1519.28,1233.33Z" style="fill-rule:nonzero;"/>
                    <path d="M1755.59,1238.12C1741.53,1238.12 1728.07,1234.8 1715.23,1228.14C1702.39,1221.49 1690.98,1212.04 1681,1199.8L1701.78,1168.27C1709.32,1177.05 1717.88,1184.17 1727.46,1189.62C1737.04,1195.08 1747.13,1197.81 1757.73,1197.81C1769.34,1197.81 1778.21,1194.88 1784.32,1189.02C1790.44,1183.17 1793.49,1175.58 1793.49,1166.27C1793.49,1160.41 1792.68,1155.56 1791.05,1151.7C1789.42,1147.84 1787.12,1144.45 1784.17,1141.52C1781.21,1138.59 1777.65,1135.93 1773.47,1133.54C1769.29,1131.14 1764.76,1128.61 1759.87,1125.95L1732.66,1110.38C1727.36,1107.72 1722.16,1104.39 1717.07,1100.4C1711.97,1096.41 1707.39,1091.62 1703.31,1086.03C1699.24,1080.44 1695.98,1073.92 1693.53,1066.47C1691.08,1059.02 1689.86,1050.5 1689.86,1040.92C1689.86,1030.54 1691.59,1020.9 1695.06,1011.98C1698.52,1003.07 1703.31,995.281 1709.43,988.628C1715.54,981.975 1722.83,976.785 1731.28,973.059C1739.74,969.334 1749.07,967.471 1759.26,967.471C1771.48,967.471 1783.15,970.465 1794.26,976.452C1805.37,982.44 1815.1,990.491 1823.45,1000.6L1805.11,1030.14C1798.38,1023.23 1791.3,1017.77 1783.86,1013.78C1776.42,1009.78 1767.61,1007.79 1757.42,1007.79C1747.84,1007.79 1740.15,1010.45 1734.34,1015.77C1728.53,1021.1 1725.63,1028.68 1725.63,1038.53C1725.63,1043.58 1726.55,1047.91 1728.38,1051.5C1730.21,1055.09 1732.71,1058.29 1735.87,1061.08C1739.03,1063.88 1742.7,1066.34 1746.87,1068.47C1751.05,1070.6 1755.38,1072.86 1759.87,1075.25L1786.16,1090.02C1792.47,1093.22 1798.28,1096.94 1803.58,1101.2C1808.88,1105.46 1813.47,1110.38 1817.34,1115.97C1821.21,1121.56 1824.22,1128.01 1826.36,1135.33C1828.5,1142.65 1829.57,1151.1 1829.57,1160.68C1829.57,1171.33 1827.88,1181.31 1824.52,1190.62C1821.16,1199.93 1816.32,1208.12 1810,1215.17C1803.68,1222.22 1795.94,1227.81 1786.77,1231.94C1777.6,1236.06 1767.2,1238.12 1755.59,1238.12Z" style="fill-rule:nonzero;"/>
                    <path d="M1871.75,1310.78L1871.75,1037.33L1900.79,1037.33L1903.55,1059.68L1904.46,1059.68C1910.98,1051.97 1918.47,1045.51 1926.93,1040.32C1935.39,1035.13 1943.9,1032.54 1952.46,1032.54C1962.24,1032.54 1970.95,1034.87 1978.59,1039.53C1986.24,1044.18 1992.66,1050.9 1997.85,1059.68C2003.05,1068.47 2007.02,1078.98 2009.78,1091.22C2012.53,1103.46 2013.9,1117.17 2013.9,1132.34C2013.9,1149.1 2012.07,1164.07 2008.4,1177.25C2004.73,1190.42 1999.79,1201.46 1993.57,1210.38C1987.36,1219.3 1980.22,1226.15 1972.17,1230.94C1964.12,1235.73 1955.82,1238.12 1947.26,1238.12C1940.33,1238.12 1933.25,1236.13 1926.01,1232.14C1918.78,1228.14 1912.21,1222.42 1906.3,1214.97L1905.38,1214.97L1907.21,1249.3L1907.21,1310.78L1871.75,1310.78ZM1939.92,1200.2C1950.72,1200.2 1959.69,1194.55 1966.82,1183.24C1973.96,1171.92 1977.52,1155.09 1977.52,1132.74C1977.52,1113.04 1974.77,1097.74 1969.27,1086.83C1963.77,1075.92 1954.9,1070.46 1942.67,1070.46C1936.97,1070.46 1931.16,1072.33 1925.25,1076.05C1919.34,1079.78 1913.33,1085.77 1907.21,1094.02L1907.21,1182.24C1912.72,1188.89 1918.37,1193.55 1924.18,1196.21C1929.99,1198.87 1935.24,1200.2 1939.92,1200.2Z" style="fill-rule:nonzero;"/>
                    <path d="M2071.99,1313.97C2067.91,1313.97 2064.04,1313.64 2060.37,1312.97C2056.7,1312.31 2053.44,1311.31 2050.59,1309.98L2057.31,1274.05C2059.35,1274.85 2061.39,1275.52 2063.43,1276.05C2065.46,1276.58 2067.6,1276.85 2069.85,1276.85C2079.42,1276.85 2087.07,1273.72 2092.77,1267.46C2098.48,1261.21 2102.86,1253.16 2105.92,1243.31L2109.59,1230.94L2042.33,1037.33L2077.49,1037.33L2108.36,1133.54C2111.22,1142.32 2113.97,1151.63 2116.62,1161.48C2119.27,1171.33 2122.02,1181.17 2124.87,1191.02L2126.09,1191.02C2128.34,1181.7 2130.78,1172.12 2133.43,1162.28C2136.08,1152.43 2138.63,1142.85 2141.07,1133.54L2168.28,1037.33L2201.6,1037.33L2138.93,1242.12C2135.67,1253.29 2132.05,1263.27 2128.08,1272.06C2124.11,1280.84 2119.47,1288.36 2114.17,1294.61C2108.87,1300.86 2102.76,1305.65 2095.83,1308.98C2088.9,1312.31 2080.95,1313.97 2071.99,1313.97Z" style="fill-rule:nonzero;"/>
                </g>
                <g>
                    <path d="M541.046,1094.41L534.015,1126.35L584.761,1126.35L577.729,1094.41C574.876,1080.58 571.921,1066.4 568.864,1051.9C565.807,1037.4 562.852,1022.83 559.999,1008.19L558.776,1008.19C555.923,1022.83 553.019,1037.4 550.064,1051.9C547.109,1066.4 544.103,1080.58 541.046,1094.41ZM474.403,1233.33L539.211,972.261L580.786,972.261L645.595,1233.33L607.994,1233.33L592.709,1162.68L526.066,1162.68L510.476,1233.33L474.403,1233.33Z" style="fill-rule:nonzero;"/>
                    <path d="M658.434,1233.33L658.434,972.261L693.895,972.261L693.895,1077.25L762.371,1077.25L762.371,972.261L797.833,972.261L797.833,1233.33L762.371,1233.33L762.371,1117.57L693.895,1117.57L693.895,1233.33L658.434,1233.33Z" style="fill-rule:nonzero;"/>
                    <path d="M829.625,1233.33L829.625,972.261L865.698,972.261L865.698,1090.82L866.615,1090.82L937.843,972.261L977.583,972.261L915.832,1073.66L984.003,1233.33L944.568,1233.33L894.128,1109.18L865.698,1156.29L865.698,1233.33L829.625,1233.33Z" style="fill-rule:nonzero;"/>
                    <rect x="996.537" y="1084.83" width="135.73" height="33.532" style="fill-rule:nonzero;"/>
                    <path d="M1186.68,1233.33L1158.25,972.261L1196.16,972.261L1206.25,1123.56C1206.86,1134.47 1207.37,1144.58 1207.78,1153.89C1208.18,1163.21 1208.59,1173.99 1209,1186.23L1209.91,1186.23C1211.55,1173.99 1213.12,1163.21 1214.65,1153.89C1216.18,1144.58 1217.86,1134.47 1219.7,1123.56L1236.2,1038.93L1262.8,1038.93L1278.39,1123.56C1280.43,1134.47 1282.16,1144.51 1283.59,1153.69C1285.01,1162.88 1286.54,1173.72 1288.17,1186.23L1289.4,1186.23C1289.8,1173.72 1290.16,1162.88 1290.47,1153.69C1290.77,1144.51 1291.23,1134.47 1291.84,1123.56L1301.62,972.261L1337.39,972.261L1310.49,1233.33L1270.44,1233.33L1254.85,1140.72C1253.43,1132.47 1252.15,1124.29 1251.03,1116.17C1249.91,1108.05 1249.04,1100 1248.43,1092.02L1247.52,1092.02C1246.5,1100 1245.58,1108.05 1244.76,1116.17C1243.95,1124.29 1242.83,1132.47 1241.4,1140.72L1226.12,1233.33L1186.68,1233.33Z" style="fill-rule:nonzero;"/>
                    <path d="M1415.95,1233.33L1415.95,1073.66L1350.84,1073.66L1350.84,1037.33L1451.11,1037.33L1451.11,1233.33L1415.95,1233.33ZM1431.24,1001.4C1424.11,1001.4 1418.15,998.608 1413.36,993.019C1408.57,987.43 1406.17,979.979 1406.17,970.664C1406.17,961.35 1408.57,953.832 1413.36,948.11C1418.15,942.388 1424.11,939.527 1431.24,939.527C1438.37,939.527 1444.33,942.388 1449.12,948.11C1453.91,953.832 1456.31,961.35 1456.31,970.664C1456.31,979.979 1453.91,987.43 1449.12,993.019C1444.33,998.608 1438.37,1001.4 1431.24,1001.4Z" style="fill-rule:nonzero;"/>
                    <path d="M1519.28,1233.33L1519.28,1037.33L1548.32,1037.33L1551.07,1066.87L1552.3,1066.87C1559.43,1057.56 1567.33,1049.51 1575.99,1042.72C1584.65,1035.93 1594.79,1032.54 1606.41,1032.54C1623.73,1032.54 1636.47,1039.39 1644.62,1053.1C1652.77,1066.8 1656.85,1086.43 1656.85,1111.98L1656.85,1233.33L1621.38,1233.33L1621.38,1117.97C1621.38,1102 1619.3,1090.36 1615.12,1083.04C1610.94,1075.72 1603.65,1072.06 1593.26,1072.06C1585.92,1072.06 1579.4,1074.32 1573.7,1078.85C1567.99,1083.37 1561.67,1090.29 1554.74,1099.6L1554.74,1233.33L1519.28,1233.33Z" style="fill-rule:nonzero;"/>
                    <path d="M1755.59,1238.12C1741.53,1238.12 1728.07,1234.8 1715.23,1228.14C1702.39,1221.49 1690.98,1212.04 1681,1199.8L1701.78,1168.27C1709.32,1177.05 1717.88,1184.17 1727.46,1189.62C1737.04,1195.08 1747.13,1197.81 1757.73,1197.81C1769.34,1197.81 1778.21,1194.88 1784.32,1189.02C1790.44,1183.17 1793.49,1175.58 1793.49,1166.27C1793.49,1160.41 1792.68,1155.56 1791.05,1151.7C1789.42,1147.84 1787.12,1144.45 1784.17,1141.52C1781.21,1138.59 1777.65,1135.93 1773.47,1133.54C1769.29,1131.14 1764.76,1128.61 1759.87,1125.95L1732.66,1110.38C1727.36,1107.72 1722.16,1104.39 1717.07,1100.4C1711.97,1096.41 1707.39,1091.62 1703.31,1086.03C1699.24,1080.44 1695.98,1073.92 1693.53,1066.47C1691.08,1059.02 1689.86,1050.5 1689.86,1040.92C1689.86,1030.54 1691.59,1020.9 1695.06,1011.98C1698.52,1003.07 1703.31,995.281 1709.43,988.628C1715.54,981.975 1722.83,976.785 1731.28,973.059C1739.74,969.334 1749.07,967.471 1759.26,967.471C1771.48,967.471 1783.15,970.465 1794.26,976.452C1805.37,982.44 1815.1,990.491 1823.45,1000.6L1805.11,1030.14C1798.38,1023.23 1791.3,1017.77 1783.86,1013.78C1776.42,1009.78 1767.61,1007.79 1757.42,1007.79C1747.84,1007.79 1740.15,1010.45 1734.34,1015.77C1728.53,1021.1 1725.63,1028.68 1725.63,1038.53C1725.63,1043.58 1726.55,1047.91 1728.38,1051.5C1730.21,1055.09 1732.71,1058.29 1735.87,1061.08C1739.03,1063.88 1742.7,1066.34 1746.87,1068.47C1751.05,1070.6 1755.38,1072.86 1759.87,1075.25L1786.16,1090.02C1792.47,1093.22 1798.28,1096.94 1803.58,1101.2C1808.88,1105.46 1813.47,1110.38 1817.34,1115.97C1821.21,1121.56 1824.22,1128.01 1826.36,1135.33C1828.5,1142.65 1829.57,1151.1 1829.57,1160.68C1829.57,1171.33 1827.88,1181.31 1824.52,1190.62C1821.16,1199.93 1816.32,1208.12 1810,1215.17C1803.68,1222.22 1795.94,1227.81 1786.77,1231.94C1777.6,1236.06 1767.2,1238.12 1755.59,1238.12Z" style="fill-rule:nonzero;"/>
                    <path d="M1871.75,1310.78L1871.75,1037.33L1900.79,1037.33L1903.55,1059.68L1904.46,1059.68C1910.98,1051.97 1918.47,1045.51 1926.93,1040.32C1935.39,1035.13 1943.9,1032.54 1952.46,1032.54C1962.24,1032.54 1970.95,1034.87 1978.59,1039.53C1986.24,1044.18 1992.66,1050.9 1997.85,1059.68C2003.05,1068.47 2007.02,1078.98 2009.78,1091.22C2012.53,1103.46 2013.9,1117.17 2013.9,1132.34C2013.9,1149.1 2012.07,1164.07 2008.4,1177.25C2004.73,1190.42 1999.79,1201.46 1993.57,1210.38C1987.36,1219.3 1980.22,1226.15 1972.17,1230.94C1964.12,1235.73 1955.82,1238.12 1947.26,1238.12C1940.33,1238.12 1933.25,1236.13 1926.01,1232.14C1918.78,1228.14 1912.21,1222.42 1906.3,1214.97L1905.38,1214.97L1907.21,1249.3L1907.21,1310.78L1871.75,1310.78ZM1939.92,1200.2C1950.72,1200.2 1959.69,1194.55 1966.82,1183.24C1973.96,1171.92 1977.52,1155.09 1977.52,1132.74C1977.52,1113.04 1974.77,1097.74 1969.27,1086.83C1963.77,1075.92 1954.9,1070.46 1942.67,1070.46C1936.97,1070.46 1931.16,1072.33 1925.25,1076.05C1919.34,1079.78 1913.33,1085.77 1907.21,1094.02L1907.21,1182.24C1912.72,1188.89 1918.37,1193.55 1924.18,1196.21C1929.99,1198.87 1935.24,1200.2 1939.92,1200.2Z" style="fill-rule:nonzero;"/>
                    <path d="M2071.99,1313.97C2067.91,1313.97 2064.04,1313.64 2060.37,1312.97C2056.7,1312.31 2053.44,1311.31 2050.59,1309.98L2057.31,1274.05C2059.35,1274.85 2061.39,1275.52 2063.43,1276.05C2065.46,1276.58 2067.6,1276.85 2069.85,1276.85C2079.42,1276.85 2087.07,1273.72 2092.77,1267.46C2098.48,1261.21 2102.86,1253.16 2105.92,1243.31L2109.59,1230.94L2042.33,1037.33L2077.49,1037.33L2108.36,1133.54C2111.22,1142.32 2113.97,1151.63 2116.62,1161.48C2119.27,1171.33 2122.02,1181.17 2124.87,1191.02L2126.09,1191.02C2128.34,1181.7 2130.78,1172.12 2133.43,1162.28C2136.08,1152.43 2138.63,1142.85 2141.07,1133.54L2168.28,1037.33L2201.6,1037.33L2138.93,1242.12C2135.67,1253.29 2132.05,1263.27 2128.08,1272.06C2124.11,1280.84 2119.47,1288.36 2114.17,1294.61C2108.87,1300.86 2102.76,1305.65 2095.83,1308.98C2088.9,1312.31 2080.95,1313.97 2071.99,1313.97Z" style="fill-rule:nonzero;"/>
                </g>
            </g>
            <g id="Brille" transform="matrix(0.188264,0,0,0.188264,1564.78,121.157)">
                <g>
                    <g id="Bügel-rechts" serif:id="Bügel rechts" transform="matrix(-4.4817,0,0,4.4817,4339.17,-1163.59)">
                        <g>
                            <g id="g5975" transform="matrix(-1,0,0,1,994.85,0)">
                                <path id="path5977" d="M39.156,315.39L75.884,315.755C77.352,311.773 131.371,263.174 172.924,248.092C185.972,243.356 190.778,242.96 198.144,245.903C198.144,245.903 244.561,269.549 267.342,279.334C290.123,289.118 322.417,270.542 299.718,256.656C277.019,242.77 218.526,227.001 218.526,227.001C198.713,218.468 182.147,222.276 166.126,228.153C96.209,244.216 69.817,280.81 39.156,315.391L39.156,315.39Z" style="fill:url(#_Linear1);fill-rule:nonzero;"/>
                                <path id="path5979" d="M192.17,235.14C159.44,253.558 80.979,272.966 60.299,315.484L70.827,315.755C107.911,281.153 156.62,256.061 168.948,250.212C178.862,243.368 187.931,240.742 195.296,243.685C195.296,243.685 245.577,265.527 268.358,275.311C291.139,285.095 322.588,270.65 299.888,256.764C296.41,254.636 292.114,252.447 287.294,250.295C281.633,256.459 278.451,265.336 262.232,259.982C237.183,261.929 215.264,244.915 192.17,235.138L192.17,235.14Z" style="fill:url(#_Linear2);fill-rule:nonzero;"/>
                                <path id="path5981" d="M194.44,222.38C184.602,222.548 175.389,225.199 166.378,228.505C96.461,244.568 70.07,281.174 39.408,315.755L54.252,315.755C69.402,296.199 85.74,277.129 107.908,260.38C126.716,248.476 147.313,239.576 169.377,233.099C179.46,226.886 191.816,226.303 204.002,225.349C226.373,230.166 249.358,236.838 272.814,244.911L272.595,244.567C247.57,235.137 218.783,227.348 218.783,227.348C210.115,223.615 202.091,222.249 194.439,222.379L194.44,222.38Z" style="fill:url(#_Linear3);fill-rule:nonzero;"/>
                            </g>
                            <g id="g6001" transform="matrix(-1,0,0,1,994.85,0)">
                                <path id="path6003" d="M39.156,315.39L66.009,315.484C68.598,308.462 148.645,260.502 173.355,246.946C183.455,241.406 193.272,241.872 200.638,244.815C200.638,244.815 243.154,265.526 265.935,275.311C288.716,285.095 322.417,270.542 299.718,256.656C277.019,242.77 218.526,227.001 218.526,227.001C198.713,218.468 182.147,222.276 166.126,228.153C96.209,244.216 69.817,280.81 39.156,315.391L39.156,315.39Z" style="fill:url(#_Linear4);fill-rule:nonzero;"/>
                                <path id="path6005" d="M192.17,235.14C159.44,253.558 77.589,272.966 56.909,315.484L78.734,313.645C81.323,306.623 122.407,273.859 170.728,248.792C186.166,240.784 195.34,242.58 205.18,247.623C205.18,247.623 245.343,265.527 268.124,275.311C290.905,285.095 322.588,270.65 299.888,256.764C296.41,254.636 292.114,252.447 287.294,250.295C281.633,256.459 278.451,265.336 262.232,259.982C237.183,261.929 215.264,244.915 192.17,235.138L192.17,235.14Z" style="fill:url(#_Linear5);fill-rule:nonzero;"/>
                                <path id="path6007" d="M194.44,222.38C184.602,222.548 175.389,225.199 166.378,228.505C96.461,244.568 70.07,281.174 39.408,315.755L54.252,315.755C69.402,296.199 85.74,277.129 107.908,260.38C126.716,248.476 147.313,239.576 169.377,233.099C179.46,226.886 191.816,226.303 204.002,225.349C226.373,230.166 249.358,236.838 272.814,244.911L272.595,244.567C247.57,235.137 218.783,227.348 218.783,227.348C210.115,223.615 202.091,222.249 194.439,222.379L194.44,222.38Z" style="fill:url(#_Linear6);fill-rule:nonzero;"/>
                            </g>
                            <g id="g6013" transform="matrix(-1,0,0,1,994.85,0)">
                                <path id="path6015" d="M39.156,315.39L73.743,315.484C76.332,308.462 144.378,256.671 172.924,246.312C186.691,241.315 191.833,241.084 199.199,244.027C199.199,244.027 245.264,267.205 268.045,276.99C290.826,286.774 322.417,270.542 299.718,256.656C277.019,242.77 218.526,227.001 218.526,227.001C198.713,218.468 182.147,222.276 166.126,228.153C96.209,244.216 69.817,280.81 39.156,315.391L39.156,315.39Z" style="fill:rgb(41,41,41);fill-opacity:0.63;fill-rule:nonzero;"/>
                                <path id="path6017" d="M192.17,235.14C159.44,253.558 81.336,272.966 60.656,315.484L76.414,315.484C79.003,308.462 147.521,259.171 168.926,248.746C181.253,242.742 189.61,240.297 196.975,243.239C196.975,243.239 242.061,265.399 264.842,275.183C287.623,284.967 322.588,270.65 299.888,256.764C296.41,254.636 292.114,252.447 287.294,250.295C281.633,256.459 278.451,265.336 262.232,259.982C237.183,261.929 215.264,244.915 192.17,235.138L192.17,235.14Z" style="fill:url(#_Linear7);fill-rule:nonzero;"/>
                                <path id="path6019" d="M194.44,222.38C184.602,222.548 175.389,225.199 166.378,228.505C96.461,244.568 70.07,281.174 39.408,315.755L54.252,315.755C69.402,296.199 85.74,277.129 107.908,260.38C126.716,248.476 147.313,239.576 169.377,233.099C179.46,226.886 191.816,226.303 204.002,225.349C226.373,230.166 249.358,236.838 272.814,244.911L272.595,244.567C247.57,235.137 218.783,227.348 218.783,227.348C210.115,223.615 202.091,222.249 194.439,222.379L194.44,222.38Z" style="fill:url(#_Linear8);fill-rule:nonzero;"/>
                            </g>
                            <g id="Bügel" transform="matrix(-1,0,0,1,994.85,0)">
                                <path id="path6041" d="M39.156,315.39L76.241,315.484C78.83,308.462 146.717,258.328 173.303,246.971C185.609,241.715 192.463,242.084 199.829,245.027C199.829,245.027 238.817,265.398 261.598,275.183C284.379,284.967 322.417,270.542 299.718,256.656C277.019,242.77 218.526,227.001 218.526,227.001C198.713,218.468 182.147,222.276 166.126,228.153C96.209,244.216 69.817,280.81 39.156,315.391L39.156,315.39Z" style="fill:url(#_Linear9);fill-rule:nonzero;"/>
                                <path id="path6045" d="M194.44,222.38C184.602,222.548 175.389,225.199 166.378,228.505C96.461,244.568 70.07,281.174 39.408,315.755L54.252,315.755C69.402,296.199 85.74,277.129 107.908,260.38C126.716,248.476 147.313,239.576 169.377,233.099C179.46,226.886 191.816,226.303 204.002,225.349C226.373,230.166 249.358,236.838 272.814,244.911L272.595,244.567C247.57,235.137 218.783,227.348 218.783,227.348C210.115,223.615 202.091,222.249 194.439,222.379L194.44,222.38Z" style="fill:url(#_Linear10);fill-rule:nonzero;"/>
                                <path id="path5987" d="M67.857,304.425C64.902,306.493 60.585,315.484 60.585,315.484C60.585,315.484 46.462,315.423 39.156,315.484L39.755,326.066C58.963,331.999 60.281,332.811 63.187,329.161C68.652,322.299 73.486,321.885 81.535,309.894C82.243,308.839 76.622,305.857 73.787,304.864C70.953,303.87 67.857,304.425 67.857,304.425Z" style="fill:url(#_Linear11);fill-rule:nonzero;"/>
                            </g>
                        </g>
                    </g>
                    <g id="Bügel-links" serif:id="Bügel links" transform="matrix(4.4817,0,0,4.4817,-1692.06,-1111.58)">
                        <g id="g59751" serif:id="g5975" transform="matrix(-1,0,0,1,994.85,0)">
                            <path id="path59771" serif:id="path5977" d="M39.156,315.39L75.884,315.755C77.352,311.773 131.371,263.174 172.924,248.092C185.972,243.356 190.778,242.96 198.144,245.903C198.144,245.903 244.561,269.549 267.342,279.334C290.123,289.118 322.417,270.542 299.718,256.656C277.019,242.77 218.526,227.001 218.526,227.001C198.713,218.468 182.147,222.276 166.126,228.153C96.209,244.216 69.817,280.81 39.156,315.391L39.156,315.39Z" style="fill:url(#_Linear12);fill-rule:nonzero;"/>
                            <path id="path59791" serif:id="path5979" d="M192.17,235.14C159.44,253.558 80.979,272.966 60.299,315.484L70.827,315.755C107.911,281.153 156.62,256.061 168.948,250.212C178.862,243.368 187.931,240.742 195.296,243.685C195.296,243.685 245.577,265.527 268.358,275.311C291.139,285.095 322.588,270.65 299.888,256.764C296.41,254.636 292.114,252.447 287.294,250.295C281.633,256.459 278.451,265.336 262.232,259.982C237.183,261.929 215.264,244.915 192.17,235.138L192.17,235.14Z" style="fill:url(#_Linear13);fill-rule:nonzero;"/>
                            <path id="path59811" serif:id="path5981" d="M194.44,222.38C184.602,222.548 175.389,225.199 166.378,228.505C96.461,244.568 70.07,281.174 39.408,315.755L54.252,315.755C69.402,296.199 85.74,277.129 107.908,260.38C126.716,248.476 147.313,239.576 169.377,233.099C179.46,226.886 191.816,226.303 204.002,225.349C226.373,230.166 249.358,236.838 272.814,244.911L272.595,244.567C247.57,235.137 218.783,227.348 218.783,227.348C210.115,223.615 202.091,222.249 194.439,222.379L194.44,222.38Z" style="fill:url(#_Linear14);fill-rule:nonzero;"/>
                        </g>
                        <g id="g60011" serif:id="g6001" transform="matrix(-1,0,0,1,994.85,0)">
                            <path id="path60031" serif:id="path6003" d="M39.156,315.39L66.009,315.484C68.598,308.462 148.645,260.502 173.355,246.946C183.455,241.406 193.272,241.872 200.638,244.815C200.638,244.815 243.154,265.526 265.935,275.311C288.716,285.095 322.417,270.542 299.718,256.656C277.019,242.77 218.526,227.001 218.526,227.001C198.713,218.468 182.147,222.276 166.126,228.153C96.209,244.216 69.817,280.81 39.156,315.391L39.156,315.39Z" style="fill:url(#_Linear15);fill-rule:nonzero;"/>
                            <path id="path60051" serif:id="path6005" d="M192.17,235.14C159.44,253.558 77.589,272.966 56.909,315.484L78.734,313.645C81.323,306.623 122.407,273.859 170.728,248.792C186.166,240.784 195.34,242.58 205.18,247.623C205.18,247.623 245.343,265.527 268.124,275.311C290.905,285.095 322.588,270.65 299.888,256.764C296.41,254.636 292.114,252.447 287.294,250.295C281.633,256.459 278.451,265.336 262.232,259.982C237.183,261.929 215.264,244.915 192.17,235.138L192.17,235.14Z" style="fill:url(#_Linear16);fill-rule:nonzero;"/>
                            <path id="path60071" serif:id="path6007" d="M194.44,222.38C184.602,222.548 175.389,225.199 166.378,228.505C96.461,244.568 70.07,281.174 39.408,315.755L54.252,315.755C69.402,296.199 85.74,277.129 107.908,260.38C126.716,248.476 147.313,239.576 169.377,233.099C179.46,226.886 191.816,226.303 204.002,225.349C226.373,230.166 249.358,236.838 272.814,244.911L272.595,244.567C247.57,235.137 218.783,227.348 218.783,227.348C210.115,223.615 202.091,222.249 194.439,222.379L194.44,222.38Z" style="fill:url(#_Linear17);fill-rule:nonzero;"/>
                        </g>
                        <g id="g60131" serif:id="g6013" transform="matrix(-1,0,0,1,994.85,0)">
                            <path id="path60151" serif:id="path6015" d="M39.156,315.39L73.743,315.484C76.332,308.462 144.378,256.671 172.924,246.312C186.691,241.315 191.833,241.084 199.199,244.027C199.199,244.027 245.264,267.205 268.045,276.99C290.826,286.774 322.417,270.542 299.718,256.656C277.019,242.77 218.526,227.001 218.526,227.001C198.713,218.468 182.147,222.276 166.126,228.153C96.209,244.216 69.817,280.81 39.156,315.391L39.156,315.39Z" style="fill:rgb(41,41,41);fill-opacity:0.63;fill-rule:nonzero;"/>
                            <path id="path60171" serif:id="path6017" d="M192.17,235.14C159.44,253.558 81.336,272.966 60.656,315.484L76.414,315.484C79.003,308.462 147.521,259.171 168.926,248.746C181.253,242.742 189.61,240.297 196.975,243.239C196.975,243.239 242.061,265.399 264.842,275.183C287.623,284.967 322.588,270.65 299.888,256.764C296.41,254.636 292.114,252.447 287.294,250.295C281.633,256.459 278.451,265.336 262.232,259.982C237.183,261.929 215.264,244.915 192.17,235.138L192.17,235.14Z" style="fill:url(#_Linear18);fill-rule:nonzero;"/>
                            <path id="path60191" serif:id="path6019" d="M194.44,222.38C184.602,222.548 175.389,225.199 166.378,228.505C96.461,244.568 70.07,281.174 39.408,315.755L54.252,315.755C69.402,296.199 85.74,277.129 107.908,260.38C126.716,248.476 147.313,239.576 169.377,233.099C179.46,226.886 191.816,226.303 204.002,225.349C226.373,230.166 249.358,236.838 272.814,244.911L272.595,244.567C247.57,235.137 218.783,227.348 218.783,227.348C210.115,223.615 202.091,222.249 194.439,222.379L194.44,222.38Z" style="fill:url(#_Linear19);fill-rule:nonzero;"/>
                        </g>
                        <g id="Bügel1" serif:id="Bügel" transform="matrix(-1,0,0,1,994.85,0)">
                            <path id="path60411" serif:id="path6041" d="M39.156,315.39L76.241,315.484C78.83,308.462 146.717,258.328 173.303,246.971C185.609,241.715 192.463,242.084 199.829,245.027C199.829,245.027 238.817,265.398 261.598,275.183C284.379,284.967 322.417,270.542 299.718,256.656C277.019,242.77 218.526,227.001 218.526,227.001C198.713,218.468 182.147,222.276 166.126,228.153C96.209,244.216 69.817,280.81 39.156,315.391L39.156,315.39Z" style="fill:url(#_Linear20);fill-rule:nonzero;"/>
                            <path id="path60451" serif:id="path6045" d="M194.44,222.38C184.602,222.548 175.389,225.199 166.378,228.505C96.461,244.568 70.07,281.174 39.408,315.755L54.252,315.755C69.402,296.199 85.74,277.129 107.908,260.38C126.716,248.476 147.313,239.576 169.377,233.099C179.46,226.886 191.816,226.303 204.002,225.349C226.373,230.166 249.358,236.838 272.814,244.911L272.595,244.567C247.57,235.137 218.783,227.348 218.783,227.348C210.115,223.615 202.091,222.249 194.439,222.379L194.44,222.38Z" style="fill:url(#_Linear21);fill-rule:nonzero;"/>
                        </g>
                        <g id="path59871" serif:id="path5987" transform="matrix(-1,0,0,1,994.85,0)">
                            <path d="M60.645,315.484C56.299,315.411 55.332,315.459 39.156,315.484L39.755,326.066C90.394,325.335 79.674,305.032 74.633,303.785C74.01,303.631 69.542,302.175 67.148,305.069C64.218,308.612 60.645,315.484 60.645,315.484Z" style="fill:url(#_Linear22);fill-rule:nonzero;"/>
                        </g>
                    </g>
                    <g>
                        <g id="Glass-links" serif:id="Glass links" transform="matrix(1.00951,0,0,1.00951,-19.3579,-4.29768)">
                            <path d="M2033.03,120.155C1797.24,120.155 1606.09,298.575 1606.09,518.667C1606.09,738.759 1797.24,917.179 2033.03,917.179C2268.82,917.179 2459.97,738.759 2459.97,518.667C2459.97,298.575 2268.82,120.155 2033.03,120.155Z" style="fill:url(#_Radial23);fill-rule:nonzero;"/>
                        </g>
                        <path id="Glass-rechts" serif:id="Glass rechts" d="M654.905,103.91C419.112,103.91 227.964,282.33 227.964,502.422C227.964,722.514 419.112,900.934 654.905,900.934C890.698,900.934 1081.85,722.514 1081.85,502.422C1081.85,282.33 890.698,103.91 654.905,103.91Z" style="fill:url(#_Radial24);fill-rule:nonzero;"/>
                        <path id="Brillenfassung" d="M1226.02,267.376C1295.49,218.414 1373.44,214.467 1461.58,264.669C1499.27,285.41 1538.53,292.972 1569.88,263.315C1710.99,129.784 1857.34,53.167 2051.81,65.666C2186.1,74.297 2302.45,109.432 2402.43,175.321C2446.54,204.388 2492.13,227.177 2537.41,246.022C2565.91,257.878 2587.53,282.012 2595.51,311.821C2602.04,336.191 2604.93,362.442 2605.25,390.025C2605.51,412.572 2591.15,432.973 2569.47,439.157C2569.29,439.206 2569.12,439.255 2568.95,439.303C2536.29,444.101 2513.95,500.758 2495.84,588.216C2466.41,730.454 2402.18,846.744 2287.37,915.149C2151.47,996.115 2003.65,1010.41 1861.61,949.669C1655.84,861.675 1544.15,674.857 1510.99,591.601C1470.16,489.109 1462.49,417.384 1345.83,415.612C1260.39,414.315 1220.81,427.006 1200.98,503.607C1152.48,690.894 1068.09,831.815 890.966,913.118C677.732,1011 502.814,980.318 327.804,853.553C230.411,783.008 166.938,659.815 135.571,483.977C127.199,437.051 102.801,406.677 68.046,387.437C53.827,379.566 45.231,364.304 45.251,348.052C45.347,272.992 53.601,211.238 99.696,211.195C139.194,205.295 180.092,189.534 222.211,165.168C439.608,19.19 659.478,-0.147 895.704,74.466C968.866,97.574 1057.03,161.936 1150.21,254.515C1174.66,278.635 1199.9,283.587 1226.02,267.376ZM654.905,103.91C419.112,103.91 227.964,282.33 227.964,502.422C227.964,722.514 419.112,900.934 654.905,900.934C890.698,900.934 1081.85,722.514 1081.85,502.422C1081.85,282.33 890.698,103.91 654.905,103.91ZM2033.03,120.155C1797.24,120.155 1606.09,298.575 1606.09,518.667C1606.09,738.759 1797.24,917.179 2033.03,917.179C2268.82,917.179 2459.97,738.759 2459.97,518.667C2459.97,298.575 2268.82,120.155 2033.03,120.155Z" style="fill:rgb(128,128,128);fill-opacity:0;fill-rule:nonzero;"/>
                        <path d="M1226.02,267.376C1295.49,218.414 1373.44,214.467 1461.58,264.669C1499.27,285.41 1538.53,292.972 1569.88,263.315C1710.99,129.784 1857.34,53.167 2051.81,65.666C2186.1,74.297 2302.45,109.432 2402.43,175.321C2446.54,204.388 2492.13,227.177 2537.41,246.022C2565.91,257.878 2587.53,282.012 2595.51,311.821C2602.04,336.191 2604.93,362.442 2605.25,390.025C2605.51,412.572 2591.15,432.973 2569.47,439.157C2569.29,439.206 2569.12,439.255 2568.95,439.303C2536.29,444.101 2513.95,500.758 2495.84,588.216C2466.41,730.454 2402.18,846.744 2287.37,915.149C2151.47,996.115 2003.65,1010.41 1861.61,949.669C1655.84,861.675 1544.15,674.857 1510.99,591.601C1470.16,489.109 1462.49,417.384 1345.83,415.612C1260.39,414.315 1220.81,427.006 1200.98,503.607C1152.48,690.894 1068.09,831.815 890.966,913.118C677.732,1011 502.814,980.318 327.804,853.553C230.411,783.008 166.938,659.815 135.571,483.977C127.199,437.051 102.801,406.677 68.046,387.437C53.827,379.566 45.231,364.304 45.251,348.052C45.347,272.992 53.601,211.238 99.696,211.195C139.194,205.295 180.092,189.534 222.211,165.168C439.608,19.19 659.478,-0.147 895.704,74.466C968.866,97.574 1057.03,161.936 1150.21,254.515C1174.66,278.635 1199.9,283.587 1226.02,267.376ZM654.905,103.91C419.112,103.91 227.964,282.33 227.964,502.422C227.964,722.514 419.112,900.934 654.905,900.934C890.698,900.934 1081.85,722.514 1081.85,502.422C1081.85,282.33 890.698,103.91 654.905,103.91ZM2033.03,120.155C1797.24,120.155 1606.09,298.575 1606.09,518.667C1606.09,738.759 1797.24,917.179 2033.03,917.179C2268.82,917.179 2459.97,738.759 2459.97,518.667C2459.97,298.575 2268.82,120.155 2033.03,120.155Z" style="fill:rgb(128,128,128);fill-opacity:0;fill-rule:nonzero;"/>
                        <path d="M1226.02,267.376C1295.49,218.414 1373.44,214.467 1461.58,264.669C1499.27,285.41 1538.53,292.972 1569.88,263.315C1710.99,129.784 1857.34,53.167 2051.81,65.666C2186.1,74.297 2302.45,109.432 2402.43,175.321C2446.54,204.388 2492.13,227.177 2537.41,246.022C2565.91,257.878 2587.53,282.012 2595.51,311.821C2602.04,336.191 2604.93,362.442 2605.25,390.025C2605.51,412.572 2591.15,432.973 2569.47,439.157C2569.29,439.206 2569.12,439.255 2568.95,439.303C2536.29,444.101 2513.95,500.758 2495.84,588.216C2466.41,730.454 2402.18,846.744 2287.37,915.149C2151.47,996.115 2003.65,1010.41 1861.61,949.669C1655.84,861.675 1544.15,674.857 1510.99,591.601C1470.16,489.109 1462.49,417.384 1345.83,415.612C1260.39,414.315 1220.81,427.006 1200.98,503.607C1152.48,690.894 1068.09,831.815 890.966,913.118C677.732,1011 502.814,980.318 327.804,853.553C230.411,783.008 166.938,659.815 135.571,483.977C127.199,437.051 102.801,406.677 68.046,387.437C53.827,379.566 45.231,364.304 45.251,348.052C45.347,272.992 53.601,211.238 99.696,211.195C139.194,205.295 180.092,189.534 222.211,165.168C439.608,19.19 659.478,-0.147 895.704,74.466C968.866,97.574 1057.03,161.936 1150.21,254.515C1174.66,278.635 1199.9,283.587 1226.02,267.376ZM654.905,103.91C419.112,103.91 227.964,282.33 227.964,502.422C227.964,722.514 419.112,900.934 654.905,900.934C890.698,900.934 1081.85,722.514 1081.85,502.422C1081.85,282.33 890.698,103.91 654.905,103.91ZM2033.03,120.155C1797.24,120.155 1606.09,298.575 1606.09,518.667C1606.09,738.759 1797.24,917.179 2033.03,917.179C2268.82,917.179 2459.97,738.759 2459.97,518.667C2459.97,298.575 2268.82,120.155 2033.03,120.155Z" style="fill:rgb(128,128,128);fill-opacity:0;fill-rule:nonzero;"/>
                        <g transform="matrix(7.09229,-0.65171,0.65171,7.09229,-2052.17,-20.9764)">
                            <g style="filter:url(#_Effect25);">
                                <path d="M341.672,152.572C352.261,158.939 364.106,161.256 376.773,161.227L380.486,147.534C369.861,144.97 359.89,140.736 350.737,135.016L341.672,152.572ZM322.284,133.344L333.731,121.811C336.924,124.84 340.262,127.652 343.737,130.238L332.7,146.864C329.035,144.071 324.181,138.203 322.284,133.344" style="fill:rgb(92,100,101);fill-opacity:0.37;fill-rule:nonzero;"/>
                            </g>
                        </g>
                        <g transform="matrix(7.09229,-0.65171,0.65171,7.09229,-689.394,-13.5678)">
                            <g style="filter:url(#_Effect26);">
                                <path d="M341.672,152.572C352.261,158.939 364.106,161.256 376.773,161.227L380.486,147.534C369.861,144.97 359.89,140.736 350.737,135.016L341.672,152.572ZM322.284,133.344L333.731,121.811C336.924,124.84 340.262,127.652 343.737,130.238L332.7,146.864C329.035,144.071 324.181,138.203 322.284,133.344" style="fill:rgb(92,100,101);fill-opacity:0.55;fill-rule:nonzero;"/>
                            </g>
                        </g>
                    </g>
                </g>
                <g>
                    <g id="Bügel-rechts1" serif:id="Bügel rechts" transform="matrix(-4.4817,0,0,4.4817,4339.17,-1163.59)">
                        <g>
                            <g id="g59752" serif:id="g5975" transform="matrix(-1,0,0,1,994.85,0)">
                                <path id="path59772" serif:id="path5977" d="M39.156,315.39L75.884,315.755C77.352,311.773 131.371,263.174 172.924,248.092C185.972,243.356 190.778,242.96 198.144,245.903C198.144,245.903 244.561,269.549 267.342,279.334C290.123,289.118 322.417,270.542 299.718,256.656C277.019,242.77 218.526,227.001 218.526,227.001C198.713,218.468 182.147,222.276 166.126,228.153C96.209,244.216 69.817,280.81 39.156,315.391L39.156,315.39Z" style="fill:url(#_Linear27);fill-rule:nonzero;"/>
                                <path id="path59792" serif:id="path5979" d="M192.17,235.14C159.44,253.558 80.979,272.966 60.299,315.484L70.827,315.755C107.911,281.153 156.62,256.061 168.948,250.212C178.862,243.368 187.931,240.742 195.296,243.685C195.296,243.685 245.577,265.527 268.358,275.311C291.139,285.095 322.588,270.65 299.888,256.764C296.41,254.636 292.114,252.447 287.294,250.295C281.633,256.459 278.451,265.336 262.232,259.982C237.183,261.929 215.264,244.915 192.17,235.138L192.17,235.14Z" style="fill:url(#_Linear28);fill-rule:nonzero;"/>
                                <path id="path59812" serif:id="path5981" d="M194.44,222.38C184.602,222.548 175.389,225.199 166.378,228.505C96.461,244.568 70.07,281.174 39.408,315.755L54.252,315.755C69.402,296.199 85.74,277.129 107.908,260.38C126.716,248.476 147.313,239.576 169.377,233.099C179.46,226.886 191.816,226.303 204.002,225.349C226.373,230.166 249.358,236.838 272.814,244.911L272.595,244.567C247.57,235.137 218.783,227.348 218.783,227.348C210.115,223.615 202.091,222.249 194.439,222.379L194.44,222.38Z" style="fill:url(#_Linear29);fill-rule:nonzero;"/>
                            </g>
                            <g id="g60012" serif:id="g6001" transform="matrix(-1,0,0,1,994.85,0)">
                                <path id="path60032" serif:id="path6003" d="M39.156,315.39L66.009,315.484C68.598,308.462 148.645,260.502 173.355,246.946C183.455,241.406 193.272,241.872 200.638,244.815C200.638,244.815 243.154,265.526 265.935,275.311C288.716,285.095 322.417,270.542 299.718,256.656C277.019,242.77 218.526,227.001 218.526,227.001C198.713,218.468 182.147,222.276 166.126,228.153C96.209,244.216 69.817,280.81 39.156,315.391L39.156,315.39Z" style="fill:url(#_Linear30);fill-rule:nonzero;"/>
                                <path id="path60052" serif:id="path6005" d="M192.17,235.14C159.44,253.558 77.589,272.966 56.909,315.484L78.734,313.645C81.323,306.623 122.407,273.859 170.728,248.792C186.166,240.784 195.34,242.58 205.18,247.623C205.18,247.623 245.343,265.527 268.124,275.311C290.905,285.095 322.588,270.65 299.888,256.764C296.41,254.636 292.114,252.447 287.294,250.295C281.633,256.459 278.451,265.336 262.232,259.982C237.183,261.929 215.264,244.915 192.17,235.138L192.17,235.14Z" style="fill:url(#_Linear31);fill-rule:nonzero;"/>
                                <path id="path60072" serif:id="path6007" d="M194.44,222.38C184.602,222.548 175.389,225.199 166.378,228.505C96.461,244.568 70.07,281.174 39.408,315.755L54.252,315.755C69.402,296.199 85.74,277.129 107.908,260.38C126.716,248.476 147.313,239.576 169.377,233.099C179.46,226.886 191.816,226.303 204.002,225.349C226.373,230.166 249.358,236.838 272.814,244.911L272.595,244.567C247.57,235.137 218.783,227.348 218.783,227.348C210.115,223.615 202.091,222.249 194.439,222.379L194.44,222.38Z" style="fill:url(#_Linear32);fill-rule:nonzero;"/>
                            </g>
                            <g id="g60132" serif:id="g6013" transform="matrix(-1,0,0,1,994.85,0)">
                                <path id="path60152" serif:id="path6015" d="M39.156,315.39L73.743,315.484C76.332,308.462 144.378,256.671 172.924,246.312C186.691,241.315 191.833,241.084 199.199,244.027C199.199,244.027 245.264,267.205 268.045,276.99C290.826,286.774 322.417,270.542 299.718,256.656C277.019,242.77 218.526,227.001 218.526,227.001C198.713,218.468 182.147,222.276 166.126,228.153C96.209,244.216 69.817,280.81 39.156,315.391L39.156,315.39Z" style="fill:rgb(41,41,41);fill-opacity:0.63;fill-rule:nonzero;"/>
                                <path id="path60172" serif:id="path6017" d="M192.17,235.14C159.44,253.558 81.336,272.966 60.656,315.484L76.414,315.484C79.003,308.462 147.521,259.171 168.926,248.746C181.253,242.742 189.61,240.297 196.975,243.239C196.975,243.239 242.061,265.399 264.842,275.183C287.623,284.967 322.588,270.65 299.888,256.764C296.41,254.636 292.114,252.447 287.294,250.295C281.633,256.459 278.451,265.336 262.232,259.982C237.183,261.929 215.264,244.915 192.17,235.138L192.17,235.14Z" style="fill:url(#_Linear33);fill-rule:nonzero;"/>
                                <path id="path60192" serif:id="path6019" d="M194.44,222.38C184.602,222.548 175.389,225.199 166.378,228.505C96.461,244.568 70.07,281.174 39.408,315.755L54.252,315.755C69.402,296.199 85.74,277.129 107.908,260.38C126.716,248.476 147.313,239.576 169.377,233.099C179.46,226.886 191.816,226.303 204.002,225.349C226.373,230.166 249.358,236.838 272.814,244.911L272.595,244.567C247.57,235.137 218.783,227.348 218.783,227.348C210.115,223.615 202.091,222.249 194.439,222.379L194.44,222.38Z" style="fill:url(#_Linear34);fill-rule:nonzero;"/>
                            </g>
                            <g id="Bügel2" serif:id="Bügel" transform="matrix(-1,0,0,1,994.85,0)">
                                <path id="path60412" serif:id="path6041" d="M39.156,315.39L76.241,315.484C78.83,308.462 146.717,258.328 173.303,246.971C185.609,241.715 192.463,242.084 199.829,245.027C199.829,245.027 238.817,265.398 261.598,275.183C284.379,284.967 322.417,270.542 299.718,256.656C277.019,242.77 218.526,227.001 218.526,227.001C198.713,218.468 182.147,222.276 166.126,228.153C96.209,244.216 69.817,280.81 39.156,315.391L39.156,315.39Z" style="fill:url(#_Linear35);fill-rule:nonzero;"/>
                                <path id="path60452" serif:id="path6045" d="M194.44,222.38C184.602,222.548 175.389,225.199 166.378,228.505C96.461,244.568 70.07,281.174 39.408,315.755L54.252,315.755C69.402,296.199 85.74,277.129 107.908,260.38C126.716,248.476 147.313,239.576 169.377,233.099C179.46,226.886 191.816,226.303 204.002,225.349C226.373,230.166 249.358,236.838 272.814,244.911L272.595,244.567C247.57,235.137 218.783,227.348 218.783,227.348C210.115,223.615 202.091,222.249 194.439,222.379L194.44,222.38Z" style="fill:url(#_Linear36);fill-rule:nonzero;"/>
                                <path id="path59872" serif:id="path5987" d="M67.857,304.425C64.902,306.493 60.585,315.484 60.585,315.484C60.585,315.484 46.462,315.423 39.156,315.484L39.755,326.066C58.963,331.999 60.281,332.811 63.187,329.161C68.652,322.299 73.486,321.885 81.535,309.894C82.243,308.839 76.622,305.857 73.787,304.864C70.953,303.87 67.857,304.425 67.857,304.425Z" style="fill:url(#_Linear37);fill-rule:nonzero;"/>
                            </g>
                        </g>
                    </g>
                    <g id="Bügel-links1" serif:id="Bügel links" transform="matrix(4.4817,0,0,4.4817,-1692.06,-1111.58)">
                        <g id="g59753" serif:id="g5975" transform="matrix(-1,0,0,1,994.85,0)">
                            <path id="path59773" serif:id="path5977" d="M39.156,315.39L75.884,315.755C77.352,311.773 131.371,263.174 172.924,248.092C185.972,243.356 190.778,242.96 198.144,245.903C198.144,245.903 244.561,269.549 267.342,279.334C290.123,289.118 322.417,270.542 299.718,256.656C277.019,242.77 218.526,227.001 218.526,227.001C198.713,218.468 182.147,222.276 166.126,228.153C96.209,244.216 69.817,280.81 39.156,315.391L39.156,315.39Z" style="fill:url(#_Linear38);fill-rule:nonzero;"/>
                            <path id="path59793" serif:id="path5979" d="M192.17,235.14C159.44,253.558 80.979,272.966 60.299,315.484L70.827,315.755C107.911,281.153 156.62,256.061 168.948,250.212C178.862,243.368 187.931,240.742 195.296,243.685C195.296,243.685 245.577,265.527 268.358,275.311C291.139,285.095 322.588,270.65 299.888,256.764C296.41,254.636 292.114,252.447 287.294,250.295C281.633,256.459 278.451,265.336 262.232,259.982C237.183,261.929 215.264,244.915 192.17,235.138L192.17,235.14Z" style="fill:url(#_Linear39);fill-rule:nonzero;"/>
                            <path id="path59813" serif:id="path5981" d="M194.44,222.38C184.602,222.548 175.389,225.199 166.378,228.505C96.461,244.568 70.07,281.174 39.408,315.755L54.252,315.755C69.402,296.199 85.74,277.129 107.908,260.38C126.716,248.476 147.313,239.576 169.377,233.099C179.46,226.886 191.816,226.303 204.002,225.349C226.373,230.166 249.358,236.838 272.814,244.911L272.595,244.567C247.57,235.137 218.783,227.348 218.783,227.348C210.115,223.615 202.091,222.249 194.439,222.379L194.44,222.38Z" style="fill:url(#_Linear40);fill-rule:nonzero;"/>
                        </g>
                        <g id="g60013" serif:id="g6001" transform="matrix(-1,0,0,1,994.85,0)">
                            <path id="path60033" serif:id="path6003" d="M39.156,315.39L66.009,315.484C68.598,308.462 148.645,260.502 173.355,246.946C183.455,241.406 193.272,241.872 200.638,244.815C200.638,244.815 243.154,265.526 265.935,275.311C288.716,285.095 322.417,270.542 299.718,256.656C277.019,242.77 218.526,227.001 218.526,227.001C198.713,218.468 182.147,222.276 166.126,228.153C96.209,244.216 69.817,280.81 39.156,315.391L39.156,315.39Z" style="fill:url(#_Linear41);fill-rule:nonzero;"/>
                            <path id="path60053" serif:id="path6005" d="M192.17,235.14C159.44,253.558 77.589,272.966 56.909,315.484L78.734,313.645C81.323,306.623 122.407,273.859 170.728,248.792C186.166,240.784 195.34,242.58 205.18,247.623C205.18,247.623 245.343,265.527 268.124,275.311C290.905,285.095 322.588,270.65 299.888,256.764C296.41,254.636 292.114,252.447 287.294,250.295C281.633,256.459 278.451,265.336 262.232,259.982C237.183,261.929 215.264,244.915 192.17,235.138L192.17,235.14Z" style="fill:url(#_Linear42);fill-rule:nonzero;"/>
                            <path id="path60073" serif:id="path6007" d="M194.44,222.38C184.602,222.548 175.389,225.199 166.378,228.505C96.461,244.568 70.07,281.174 39.408,315.755L54.252,315.755C69.402,296.199 85.74,277.129 107.908,260.38C126.716,248.476 147.313,239.576 169.377,233.099C179.46,226.886 191.816,226.303 204.002,225.349C226.373,230.166 249.358,236.838 272.814,244.911L272.595,244.567C247.57,235.137 218.783,227.348 218.783,227.348C210.115,223.615 202.091,222.249 194.439,222.379L194.44,222.38Z" style="fill:url(#_Linear43);fill-rule:nonzero;"/>
                        </g>
                        <g id="g60133" serif:id="g6013" transform="matrix(-1,0,0,1,994.85,0)">
                            <path id="path60153" serif:id="path6015" d="M39.156,315.39L73.743,315.484C76.332,308.462 144.378,256.671 172.924,246.312C186.691,241.315 191.833,241.084 199.199,244.027C199.199,244.027 245.264,267.205 268.045,276.99C290.826,286.774 322.417,270.542 299.718,256.656C277.019,242.77 218.526,227.001 218.526,227.001C198.713,218.468 182.147,222.276 166.126,228.153C96.209,244.216 69.817,280.81 39.156,315.391L39.156,315.39Z" style="fill:rgb(41,41,41);fill-opacity:0.63;fill-rule:nonzero;"/>
                            <path id="path60173" serif:id="path6017" d="M192.17,235.14C159.44,253.558 81.336,272.966 60.656,315.484L76.414,315.484C79.003,308.462 147.521,259.171 168.926,248.746C181.253,242.742 189.61,240.297 196.975,243.239C196.975,243.239 242.061,265.399 264.842,275.183C287.623,284.967 322.588,270.65 299.888,256.764C296.41,254.636 292.114,252.447 287.294,250.295C281.633,256.459 278.451,265.336 262.232,259.982C237.183,261.929 215.264,244.915 192.17,235.138L192.17,235.14Z" style="fill:url(#_Linear44);fill-rule:nonzero;"/>
                            <path id="path60193" serif:id="path6019" d="M194.44,222.38C184.602,222.548 175.389,225.199 166.378,228.505C96.461,244.568 70.07,281.174 39.408,315.755L54.252,315.755C69.402,296.199 85.74,277.129 107.908,260.38C126.716,248.476 147.313,239.576 169.377,233.099C179.46,226.886 191.816,226.303 204.002,225.349C226.373,230.166 249.358,236.838 272.814,244.911L272.595,244.567C247.57,235.137 218.783,227.348 218.783,227.348C210.115,223.615 202.091,222.249 194.439,222.379L194.44,222.38Z" style="fill:url(#_Linear45);fill-rule:nonzero;"/>
                        </g>
                        <g id="Bügel3" serif:id="Bügel" transform="matrix(-1,0,0,1,994.85,0)">
                            <path id="path60413" serif:id="path6041" d="M39.156,315.39L76.241,315.484C78.83,308.462 146.717,258.328 173.303,246.971C185.609,241.715 192.463,242.084 199.829,245.027C199.829,245.027 238.817,265.398 261.598,275.183C284.379,284.967 322.417,270.542 299.718,256.656C277.019,242.77 218.526,227.001 218.526,227.001C198.713,218.468 182.147,222.276 166.126,228.153C96.209,244.216 69.817,280.81 39.156,315.391L39.156,315.39Z" style="fill:url(#_Linear46);fill-rule:nonzero;"/>
                            <path id="path60453" serif:id="path6045" d="M194.44,222.38C184.602,222.548 175.389,225.199 166.378,228.505C96.461,244.568 70.07,281.174 39.408,315.755L54.252,315.755C69.402,296.199 85.74,277.129 107.908,260.38C126.716,248.476 147.313,239.576 169.377,233.099C179.46,226.886 191.816,226.303 204.002,225.349C226.373,230.166 249.358,236.838 272.814,244.911L272.595,244.567C247.57,235.137 218.783,227.348 218.783,227.348C210.115,223.615 202.091,222.249 194.439,222.379L194.44,222.38Z" style="fill:url(#_Linear47);fill-rule:nonzero;"/>
                        </g>
                        <g id="path59873" serif:id="path5987" transform="matrix(-1,0,0,1,994.85,0)">
                            <path d="M60.645,315.484C56.299,315.411 55.332,315.459 39.156,315.484L39.755,326.066C90.394,325.335 79.674,305.032 74.633,303.785C74.01,303.631 69.542,302.175 67.148,305.069C64.218,308.612 60.645,315.484 60.645,315.484Z" style="fill:url(#_Linear48);fill-rule:nonzero;"/>
                        </g>
                    </g>
                    <g>
                        <g id="Glass-links1" serif:id="Glass links" transform="matrix(1.00951,0,0,1.00951,-19.3579,-4.29768)">
                            <path d="M2033.03,120.155C1797.24,120.155 1606.09,298.575 1606.09,518.667C1606.09,738.759 1797.24,917.179 2033.03,917.179C2268.82,917.179 2459.97,738.759 2459.97,518.667C2459.97,298.575 2268.82,120.155 2033.03,120.155Z" style="fill:url(#_Radial49);fill-rule:nonzero;"/>
                        </g>
                        <path id="Glass-rechts1" serif:id="Glass rechts" d="M654.905,103.91C419.112,103.91 227.964,282.33 227.964,502.422C227.964,722.514 419.112,900.934 654.905,900.934C890.698,900.934 1081.85,722.514 1081.85,502.422C1081.85,282.33 890.698,103.91 654.905,103.91Z" style="fill:url(#_Radial50);fill-rule:nonzero;"/>
                        <path id="Brillenfassung1" serif:id="Brillenfassung" d="M1226.02,267.376C1295.49,218.414 1373.44,214.467 1461.58,264.669C1499.27,285.41 1538.53,292.972 1569.88,263.315C1710.99,129.784 1857.34,53.167 2051.81,65.666C2186.1,74.297 2302.45,109.432 2402.43,175.321C2446.54,204.388 2492.13,227.177 2537.41,246.022C2565.91,257.878 2587.53,282.012 2595.51,311.821C2602.04,336.191 2604.93,362.442 2605.25,390.025C2605.51,412.572 2591.15,432.973 2569.47,439.157C2569.29,439.206 2569.12,439.255 2568.95,439.303C2536.29,444.101 2513.95,500.758 2495.84,588.216C2466.41,730.454 2402.18,846.744 2287.37,915.149C2151.47,996.115 2003.65,1010.41 1861.61,949.669C1655.84,861.675 1544.15,674.857 1510.99,591.601C1470.16,489.109 1462.49,417.384 1345.83,415.612C1260.39,414.315 1220.81,427.006 1200.98,503.607C1152.48,690.894 1068.09,831.815 890.966,913.118C677.732,1011 502.814,980.318 327.804,853.553C230.411,783.008 166.938,659.815 135.571,483.977C127.199,437.051 102.801,406.677 68.046,387.437C53.827,379.566 45.231,364.304 45.251,348.052C45.347,272.992 53.601,211.238 99.696,211.195C139.194,205.295 180.092,189.534 222.211,165.168C439.608,19.19 659.478,-0.147 895.704,74.466C968.866,97.574 1057.03,161.936 1150.21,254.515C1174.66,278.635 1199.9,283.587 1226.02,267.376ZM654.905,103.91C419.112,103.91 227.964,282.33 227.964,502.422C227.964,722.514 419.112,900.934 654.905,900.934C890.698,900.934 1081.85,722.514 1081.85,502.422C1081.85,282.33 890.698,103.91 654.905,103.91ZM2033.03,120.155C1797.24,120.155 1606.09,298.575 1606.09,518.667C1606.09,738.759 1797.24,917.179 2033.03,917.179C2268.82,917.179 2459.97,738.759 2459.97,518.667C2459.97,298.575 2268.82,120.155 2033.03,120.155Z" style="fill:rgb(128,128,128);fill-opacity:0;fill-rule:nonzero;"/>
                        <path d="M1226.02,267.376C1295.49,218.414 1373.44,214.467 1461.58,264.669C1499.27,285.41 1538.53,292.972 1569.88,263.315C1710.99,129.784 1857.34,53.167 2051.81,65.666C2186.1,74.297 2302.45,109.432 2402.43,175.321C2446.54,204.388 2492.13,227.177 2537.41,246.022C2565.91,257.878 2587.53,282.012 2595.51,311.821C2602.04,336.191 2604.93,362.442 2605.25,390.025C2605.51,412.572 2591.15,432.973 2569.47,439.157C2569.29,439.206 2569.12,439.255 2568.95,439.303C2536.29,444.101 2513.95,500.758 2495.84,588.216C2466.41,730.454 2402.18,846.744 2287.37,915.149C2151.47,996.115 2003.65,1010.41 1861.61,949.669C1655.84,861.675 1544.15,674.857 1510.99,591.601C1470.16,489.109 1462.49,417.384 1345.83,415.612C1260.39,414.315 1220.81,427.006 1200.98,503.607C1152.48,690.894 1068.09,831.815 890.966,913.118C677.732,1011 502.814,980.318 327.804,853.553C230.411,783.008 166.938,659.815 135.571,483.977C127.199,437.051 102.801,406.677 68.046,387.437C53.827,379.566 45.231,364.304 45.251,348.052C45.347,272.992 53.601,211.238 99.696,211.195C139.194,205.295 180.092,189.534 222.211,165.168C439.608,19.19 659.478,-0.147 895.704,74.466C968.866,97.574 1057.03,161.936 1150.21,254.515C1174.66,278.635 1199.9,283.587 1226.02,267.376ZM654.905,103.91C419.112,103.91 227.964,282.33 227.964,502.422C227.964,722.514 419.112,900.934 654.905,900.934C890.698,900.934 1081.85,722.514 1081.85,502.422C1081.85,282.33 890.698,103.91 654.905,103.91ZM2033.03,120.155C1797.24,120.155 1606.09,298.575 1606.09,518.667C1606.09,738.759 1797.24,917.179 2033.03,917.179C2268.82,917.179 2459.97,738.759 2459.97,518.667C2459.97,298.575 2268.82,120.155 2033.03,120.155Z" style="fill:rgb(128,128,128);fill-opacity:0;fill-rule:nonzero;"/>
                        <path d="M1226.02,267.376C1295.49,218.414 1373.44,214.467 1461.58,264.669C1499.27,285.41 1538.53,292.972 1569.88,263.315C1710.99,129.784 1857.34,53.167 2051.81,65.666C2186.1,74.297 2302.45,109.432 2402.43,175.321C2446.54,204.388 2492.13,227.177 2537.41,246.022C2565.91,257.878 2587.53,282.012 2595.51,311.821C2602.04,336.191 2604.93,362.442 2605.25,390.025C2605.51,412.572 2591.15,432.973 2569.47,439.157C2569.29,439.206 2569.12,439.255 2568.95,439.303C2536.29,444.101 2513.95,500.758 2495.84,588.216C2466.41,730.454 2402.18,846.744 2287.37,915.149C2151.47,996.115 2003.65,1010.41 1861.61,949.669C1655.84,861.675 1544.15,674.857 1510.99,591.601C1470.16,489.109 1462.49,417.384 1345.83,415.612C1260.39,414.315 1220.81,427.006 1200.98,503.607C1152.48,690.894 1068.09,831.815 890.966,913.118C677.732,1011 502.814,980.318 327.804,853.553C230.411,783.008 166.938,659.815 135.571,483.977C127.199,437.051 102.801,406.677 68.046,387.437C53.827,379.566 45.231,364.304 45.251,348.052C45.347,272.992 53.601,211.238 99.696,211.195C139.194,205.295 180.092,189.534 222.211,165.168C439.608,19.19 659.478,-0.147 895.704,74.466C968.866,97.574 1057.03,161.936 1150.21,254.515C1174.66,278.635 1199.9,283.587 1226.02,267.376ZM654.905,103.91C419.112,103.91 227.964,282.33 227.964,502.422C227.964,722.514 419.112,900.934 654.905,900.934C890.698,900.934 1081.85,722.514 1081.85,502.422C1081.85,282.33 890.698,103.91 654.905,103.91ZM2033.03,120.155C1797.24,120.155 1606.09,298.575 1606.09,518.667C1606.09,738.759 1797.24,917.179 2033.03,917.179C2268.82,917.179 2459.97,738.759 2459.97,518.667C2459.97,298.575 2268.82,120.155 2033.03,120.155Z" style="fill:rgb(128,128,128);fill-opacity:0;fill-rule:nonzero;"/>
                        <g transform="matrix(7.09229,-0.65171,0.65171,7.09229,-2052.17,-20.9764)">
                            <g style="filter:url(#_Effect51);">
                                <path d="M341.672,152.572C352.261,158.939 364.106,161.256 376.773,161.227L380.486,147.534C369.861,144.97 359.89,140.736 350.737,135.016L341.672,152.572ZM322.284,133.344L333.731,121.811C336.924,124.84 340.262,127.652 343.737,130.238L332.7,146.864C329.035,144.071 324.181,138.203 322.284,133.344" style="fill:rgb(92,100,101);fill-opacity:0.37;fill-rule:nonzero;"/>
                            </g>
                        </g>
                        <g transform="matrix(7.09229,-0.65171,0.65171,7.09229,-689.394,-13.5678)">
                            <g style="filter:url(#_Effect52);">
                                <path d="M341.672,152.572C352.261,158.939 364.106,161.256 376.773,161.227L380.486,147.534C369.861,144.97 359.89,140.736 350.737,135.016L341.672,152.572ZM322.284,133.344L333.731,121.811C336.924,124.84 340.262,127.652 343.737,130.238L332.7,146.864C329.035,144.071 324.181,138.203 322.284,133.344" style="fill:rgb(92,100,101);fill-opacity:0.55;fill-rule:nonzero;"/>
                            </g>
                        </g>
                    </g>
                </g>
            </g>
        </g>
        <g transform="matrix(0.384949,0.876968,-0.915667,0.401937,2157.88,-2412.71)">
            <g transform="matrix(1.04413,0,0,1,-133.4,-5.68434e-14)">
                <text x="3022.97px" y="350.435px" style="font-family:'SoftElegance-Regular', 'Soft Elegance';font-weight:500;font-size:104.167px;fill:rgb(255,126,0);">1.0<tspan x="3130.06px " y="350.435px ">5</tspan></text>
            </g>
            <g transform="matrix(1.04413,0,0,1,-133.4,-5.68434e-14)">
                <text x="3022.97px" y="350.435px" style="font-family:'SoftElegance-Regular', 'Soft Elegance';font-weight:500;font-size:104.167px;fill:rgb(255,126,0);">1.0<tspan x="3130.06px " y="350.435px ">5</tspan></text>
            </g>
        </g>
        <g transform="matrix(0.564284,0.151081,-0.258629,0.965977,1428.41,-372.226)">
            <g transform="matrix(1.71186,0,0,1,-2046.31,0)">
                <text x="2874.59px" y="316.411px" style="font-family:'SoftElegance-Regular', 'Soft Elegance';font-weight:500;font-size:104.167px;fill:rgb(255,126,0);">V</text>
            </g>
            <g transform="matrix(1.71186,0,0,1,-2046.31,0)">
                <text x="2874.59px" y="316.411px" style="font-family:'SoftElegance-Regular', 'Soft Elegance';font-weight:500;font-size:104.167px;fill:rgb(255,126,0);">V</text>
            </g>
        </g>
    </g>
    <defs>
        <linearGradient id="_Linear1" x1="0" y1="0" x2="1" y2="0.130687" gradientUnits="userSpaceOnUse" gradientTransform="matrix(68.7138,73.6844,-84.601,59.8472,80.8572,253.91)"><stop offset="0" style="stop-color:black;stop-opacity:1"/><stop offset="1" style="stop-color:rgb(30,30,30);stop-opacity:1"/></linearGradient>
        <linearGradient id="_Linear2" x1="0" y1="0" x2="1" y2="0.0262042" gradientUnits="userSpaceOnUse" gradientTransform="matrix(52.9036,63.4049,-65.1354,51.4981,133.088,262.58)"><stop offset="0" style="stop-color:black;stop-opacity:1"/><stop offset="1" style="stop-color:rgb(30,30,30);stop-opacity:1"/></linearGradient>
        <linearGradient id="_Linear3" x1="0" y1="0" x2="1" y2="0" gradientUnits="userSpaceOnUse" gradientTransform="matrix(59.855,73.694,-73.694,59.855,75.733,254.266)"><stop offset="0" style="stop-color:black;stop-opacity:1"/><stop offset="1" style="stop-color:rgb(30,30,30);stop-opacity:1"/></linearGradient>
        <linearGradient id="_Linear4" x1="0" y1="0" x2="1" y2="0.130687" gradientUnits="userSpaceOnUse" gradientTransform="matrix(68.7138,73.6844,-84.601,59.8472,80.8572,253.91)"><stop offset="0" style="stop-color:black;stop-opacity:0.63"/><stop offset="1" style="stop-color:rgb(30,30,30);stop-opacity:0.63"/></linearGradient>
        <linearGradient id="_Linear5" x1="0" y1="0" x2="1" y2="0" gradientUnits="userSpaceOnUse" gradientTransform="matrix(-4.22962,9.49281,-9.49281,-4.22962,193.21,235.138)"><stop offset="0" style="stop-color:black;stop-opacity:0.5"/><stop offset="1" style="stop-color:rgb(92,88,88);stop-opacity:0.5"/></linearGradient>
        <linearGradient id="_Linear6" x1="0" y1="0" x2="1" y2="0" gradientUnits="userSpaceOnUse" gradientTransform="matrix(44.3856,29.4798,-29.4798,44.3856,68.3576,284.165)"><stop offset="0" style="stop-color:rgb(8,5,5);stop-opacity:0.52"/><stop offset="1" style="stop-color:black;stop-opacity:0.32"/></linearGradient>
        <linearGradient id="_Linear7" x1="0" y1="0" x2="1" y2="0" gradientUnits="userSpaceOnUse" gradientTransform="matrix(-3.17912,-21.3387,21.3387,-3.17912,282.152,284.128)"><stop offset="0" style="stop-color:rgb(117,117,117);stop-opacity:0.63"/><stop offset="0.56" style="stop-color:rgb(93,93,93);stop-opacity:0.63"/><stop offset="1" style="stop-color:black;stop-opacity:0.63"/></linearGradient>
        <linearGradient id="_Linear8" x1="0" y1="0" x2="1" y2="0" gradientUnits="userSpaceOnUse" gradientTransform="matrix(17.7869,11.0212,-11.0212,17.7869,130.679,248.542)"><stop offset="0" style="stop-color:black;stop-opacity:0.51"/><stop offset="1" style="stop-color:rgb(82,82,82);stop-opacity:0.42"/></linearGradient>
        <linearGradient id="_Linear9" x1="0" y1="0" x2="1" y2="0" gradientUnits="userSpaceOnUse" gradientTransform="matrix(-171.706,83.3321,83.3321,171.706,232.563,232.152)"><stop offset="0" style="stop-color:rgb(83,83,83);stop-opacity:0.63"/><stop offset="0.5" style="stop-color:rgb(62,62,62);stop-opacity:0.6"/><stop offset="1" style="stop-color:black;stop-opacity:0.51"/></linearGradient>
        <linearGradient id="_Linear10" x1="0" y1="0" x2="1" y2="0" gradientUnits="userSpaceOnUse" gradientTransform="matrix(12.6357,16.5679,-16.5679,12.6357,97.1963,268.752)"><stop offset="0" style="stop-color:rgb(37,28,28);stop-opacity:0.49"/><stop offset="0.48" style="stop-color:rgb(27,20,20);stop-opacity:0.53"/><stop offset="1" style="stop-color:black;stop-opacity:0.63"/></linearGradient>
        <linearGradient id="_Linear11" x1="0" y1="0" x2="1" y2="0" gradientUnits="userSpaceOnUse" gradientTransform="matrix(35.3891,-10.4455,10.4455,35.3891,41.2322,320.907)"><stop offset="0" style="stop-color:rgb(15,15,15);stop-opacity:1"/><stop offset="0.58" style="stop-color:rgb(40,40,40);stop-opacity:1"/><stop offset="1" style="stop-color:rgb(51,51,51);stop-opacity:1"/></linearGradient>
        <linearGradient id="_Linear12" x1="0" y1="0" x2="1" y2="0.130687" gradientUnits="userSpaceOnUse" gradientTransform="matrix(68.7138,73.6844,-84.601,59.8472,80.8572,253.91)"><stop offset="0" style="stop-color:black;stop-opacity:1"/><stop offset="1" style="stop-color:rgb(30,30,30);stop-opacity:1"/></linearGradient>
        <linearGradient id="_Linear13" x1="0" y1="0" x2="1" y2="0.0262042" gradientUnits="userSpaceOnUse" gradientTransform="matrix(52.9036,63.4049,-65.1354,51.4981,133.088,262.58)"><stop offset="0" style="stop-color:black;stop-opacity:1"/><stop offset="1" style="stop-color:rgb(30,30,30);stop-opacity:1"/></linearGradient>
        <linearGradient id="_Linear14" x1="0" y1="0" x2="1" y2="0" gradientUnits="userSpaceOnUse" gradientTransform="matrix(59.855,73.694,-73.694,59.855,75.733,254.266)"><stop offset="0" style="stop-color:black;stop-opacity:1"/><stop offset="1" style="stop-color:rgb(30,30,30);stop-opacity:1"/></linearGradient>
        <linearGradient id="_Linear15" x1="0" y1="0" x2="1" y2="0.130687" gradientUnits="userSpaceOnUse" gradientTransform="matrix(68.7138,73.6844,-84.601,59.8472,80.8572,253.91)"><stop offset="0" style="stop-color:black;stop-opacity:0.63"/><stop offset="1" style="stop-color:rgb(30,30,30);stop-opacity:0.63"/></linearGradient>
        <linearGradient id="_Linear16" x1="0" y1="0" x2="1" y2="0.0262042" gradientUnits="userSpaceOnUse" gradientTransform="matrix(52.9036,63.4049,-65.1354,51.4981,133.088,262.58)"><stop offset="0" style="stop-color:black;stop-opacity:0.63"/><stop offset="1" style="stop-color:rgb(30,30,30);stop-opacity:0.63"/></linearGradient>
        <linearGradient id="_Linear17" x1="0" y1="0" x2="1" y2="0" gradientUnits="userSpaceOnUse" gradientTransform="matrix(114.012,42.34,-42.34,114.012,27.688,292.95)"><stop offset="0" style="stop-color:black;stop-opacity:0.63"/><stop offset="1" style="stop-color:rgb(11,11,11);stop-opacity:0.63"/></linearGradient>
        <linearGradient id="_Linear18" x1="0" y1="0" x2="1" y2="0" gradientUnits="userSpaceOnUse" gradientTransform="matrix(-3.17912,-21.3387,21.3387,-3.17912,282.152,284.128)"><stop offset="0" style="stop-color:rgb(117,117,117);stop-opacity:0.63"/><stop offset="0.56" style="stop-color:rgb(93,93,93);stop-opacity:0.63"/><stop offset="1" style="stop-color:black;stop-opacity:0.63"/></linearGradient>
        <linearGradient id="_Linear19" x1="0" y1="0" x2="1" y2="0" gradientUnits="userSpaceOnUse" gradientTransform="matrix(17.7869,11.0212,-11.0212,17.7869,130.679,248.542)"><stop offset="0" style="stop-color:black;stop-opacity:0.63"/><stop offset="1" style="stop-color:rgb(82,82,82);stop-opacity:0.63"/></linearGradient>
        <linearGradient id="_Linear20" x1="0" y1="0" x2="1" y2="0" gradientUnits="userSpaceOnUse" gradientTransform="matrix(-171.706,83.3321,83.3321,171.706,232.563,232.152)"><stop offset="0" style="stop-color:black;stop-opacity:0.42"/><stop offset="0.5" style="stop-color:rgb(62,62,62);stop-opacity:0.57"/><stop offset="1" style="stop-color:rgb(83,83,83);stop-opacity:0.63"/></linearGradient>
        <linearGradient id="_Linear21" x1="0" y1="0" x2="1" y2="0" gradientUnits="userSpaceOnUse" gradientTransform="matrix(12.6357,16.5679,-16.5679,12.6357,97.1963,268.752)"><stop offset="0" style="stop-color:black;stop-opacity:0.63"/><stop offset="0.52" style="stop-color:rgb(39,39,39);stop-opacity:0.46"/><stop offset="1" style="stop-color:rgb(54,54,54);stop-opacity:0.4"/></linearGradient>
        <linearGradient id="_Linear22" x1="0" y1="0" x2="1" y2="0" gradientUnits="userSpaceOnUse" gradientTransform="matrix(23.8813,-11.1403,-11.1403,-23.8813,42.5725,326.066)"><stop offset="0" style="stop-color:black;stop-opacity:1"/><stop offset="1" style="stop-color:rgb(77,77,77);stop-opacity:1"/></linearGradient>
        <radialGradient id="_Radial23" cx="0" cy="0" r="1" gradientUnits="userSpaceOnUse" gradientTransform="matrix(464.656,-126.331,117.919,433.715,2033.03,529.375)"><stop offset="0" style="stop-color:rgb(71,71,71);stop-opacity:0.9"/><stop offset="0.48" style="stop-color:rgb(58,58,58);stop-opacity:0.9"/><stop offset="0.86" style="stop-color:rgb(8,8,8);stop-opacity:0.89"/><stop offset="0.92" style="stop-color:rgb(29,26,22);stop-opacity:0.94"/><stop offset="0.95" style="stop-color:rgb(19,17,15);stop-opacity:0.8"/><stop offset="1" style="stop-color:rgb(18,10,1);stop-opacity:0.89"/></radialGradient>
        <radialGradient id="_Radial24" cx="0" cy="0" r="1" gradientUnits="userSpaceOnUse" gradientTransform="matrix(426.941,0,0,426.941,654.905,502.422)"><stop offset="0" style="stop-color:rgb(43,43,43);stop-opacity:0.82"/><stop offset="0.6" style="stop-color:rgb(35,35,35);stop-opacity:0.82"/><stop offset="0.81" style="stop-color:rgb(18,18,18);stop-opacity:0.82"/><stop offset="1" style="stop-color:black;stop-opacity:0.82"/></radialGradient>
        <filter id="_Effect25" filterUnits="userSpaceOnUse" x="318.142" y="117.669" width="66.4861" height="47.7001">
            <feGaussianBlur in="SourceGraphic" stdDeviation="0.690345"/>
        </filter>
        <filter id="_Effect26" filterUnits="userSpaceOnUse" x="317.809" y="117.336" width="67.1515" height="48.3655">
            <feGaussianBlur in="SourceGraphic" stdDeviation="0.745796"/>
        </filter>
        <linearGradient id="_Linear27" x1="0" y1="0" x2="1" y2="0.130687" gradientUnits="userSpaceOnUse" gradientTransform="matrix(68.7138,73.6844,-84.601,59.8472,80.8572,253.91)"><stop offset="0" style="stop-color:black;stop-opacity:1"/><stop offset="1" style="stop-color:rgb(30,30,30);stop-opacity:1"/></linearGradient>
        <linearGradient id="_Linear28" x1="0" y1="0" x2="1" y2="0.0262042" gradientUnits="userSpaceOnUse" gradientTransform="matrix(52.9036,63.4049,-65.1354,51.4981,133.088,262.58)"><stop offset="0" style="stop-color:black;stop-opacity:1"/><stop offset="1" style="stop-color:rgb(30,30,30);stop-opacity:1"/></linearGradient>
        <linearGradient id="_Linear29" x1="0" y1="0" x2="1" y2="0" gradientUnits="userSpaceOnUse" gradientTransform="matrix(59.855,73.694,-73.694,59.855,75.733,254.266)"><stop offset="0" style="stop-color:black;stop-opacity:1"/><stop offset="1" style="stop-color:rgb(30,30,30);stop-opacity:1"/></linearGradient>
        <linearGradient id="_Linear30" x1="0" y1="0" x2="1" y2="0.130687" gradientUnits="userSpaceOnUse" gradientTransform="matrix(68.7138,73.6844,-84.601,59.8472,80.8572,253.91)"><stop offset="0" style="stop-color:black;stop-opacity:0.63"/><stop offset="1" style="stop-color:rgb(30,30,30);stop-opacity:0.63"/></linearGradient>
        <linearGradient id="_Linear31" x1="0" y1="0" x2="1" y2="0" gradientUnits="userSpaceOnUse" gradientTransform="matrix(-4.22962,9.49281,-9.49281,-4.22962,193.21,235.138)"><stop offset="0" style="stop-color:black;stop-opacity:0.5"/><stop offset="1" style="stop-color:rgb(92,88,88);stop-opacity:0.5"/></linearGradient>
        <linearGradient id="_Linear32" x1="0" y1="0" x2="1" y2="0" gradientUnits="userSpaceOnUse" gradientTransform="matrix(44.3856,29.4798,-29.4798,44.3856,68.3576,284.165)"><stop offset="0" style="stop-color:rgb(8,5,5);stop-opacity:0.52"/><stop offset="1" style="stop-color:black;stop-opacity:0.32"/></linearGradient>
        <linearGradient id="_Linear33" x1="0" y1="0" x2="1" y2="0" gradientUnits="userSpaceOnUse" gradientTransform="matrix(-3.17912,-21.3387,21.3387,-3.17912,282.152,284.128)"><stop offset="0" style="stop-color:rgb(117,117,117);stop-opacity:0.63"/><stop offset="0.56" style="stop-color:rgb(93,93,93);stop-opacity:0.63"/><stop offset="1" style="stop-color:black;stop-opacity:0.63"/></linearGradient>
        <linearGradient id="_Linear34" x1="0" y1="0" x2="1" y2="0" gradientUnits="userSpaceOnUse" gradientTransform="matrix(17.7869,11.0212,-11.0212,17.7869,130.679,248.542)"><stop offset="0" style="stop-color:black;stop-opacity:0.51"/><stop offset="1" style="stop-color:rgb(82,82,82);stop-opacity:0.42"/></linearGradient>
        <linearGradient id="_Linear35" x1="0" y1="0" x2="1" y2="0" gradientUnits="userSpaceOnUse" gradientTransform="matrix(-171.706,83.3321,83.3321,171.706,232.563,232.152)"><stop offset="0" style="stop-color:rgb(83,83,83);stop-opacity:0.63"/><stop offset="0.5" style="stop-color:rgb(62,62,62);stop-opacity:0.6"/><stop offset="1" style="stop-color:black;stop-opacity:0.51"/></linearGradient>
        <linearGradient id="_Linear36" x1="0" y1="0" x2="1" y2="0" gradientUnits="userSpaceOnUse" gradientTransform="matrix(12.6357,16.5679,-16.5679,12.6357,97.1963,268.752)"><stop offset="0" style="stop-color:rgb(37,28,28);stop-opacity:0.49"/><stop offset="0.48" style="stop-color:rgb(27,20,20);stop-opacity:0.53"/><stop offset="1" style="stop-color:black;stop-opacity:0.63"/></linearGradient>
        <linearGradient id="_Linear37" x1="0" y1="0" x2="1" y2="0" gradientUnits="userSpaceOnUse" gradientTransform="matrix(35.3891,-10.4455,10.4455,35.3891,41.2322,320.907)"><stop offset="0" style="stop-color:rgb(15,15,15);stop-opacity:1"/><stop offset="0.58" style="stop-color:rgb(40,40,40);stop-opacity:1"/><stop offset="1" style="stop-color:rgb(51,51,51);stop-opacity:1"/></linearGradient>
        <linearGradient id="_Linear38" x1="0" y1="0" x2="1" y2="0.130687" gradientUnits="userSpaceOnUse" gradientTransform="matrix(68.7138,73.6844,-84.601,59.8472,80.8572,253.91)"><stop offset="0" style="stop-color:black;stop-opacity:1"/><stop offset="1" style="stop-color:rgb(30,30,30);stop-opacity:1"/></linearGradient>
        <linearGradient id="_Linear39" x1="0" y1="0" x2="1" y2="0.0262042" gradientUnits="userSpaceOnUse" gradientTransform="matrix(52.9036,63.4049,-65.1354,51.4981,133.088,262.58)"><stop offset="0" style="stop-color:black;stop-opacity:1"/><stop offset="1" style="stop-color:rgb(30,30,30);stop-opacity:1"/></linearGradient>
        <linearGradient id="_Linear40" x1="0" y1="0" x2="1" y2="0" gradientUnits="userSpaceOnUse" gradientTransform="matrix(59.855,73.694,-73.694,59.855,75.733,254.266)"><stop offset="0" style="stop-color:black;stop-opacity:1"/><stop offset="1" style="stop-color:rgb(30,30,30);stop-opacity:1"/></linearGradient>
        <linearGradient id="_Linear41" x1="0" y1="0" x2="1" y2="0.130687" gradientUnits="userSpaceOnUse" gradientTransform="matrix(68.7138,73.6844,-84.601,59.8472,80.8572,253.91)"><stop offset="0" style="stop-color:black;stop-opacity:0.63"/><stop offset="1" style="stop-color:rgb(30,30,30);stop-opacity:0.63"/></linearGradient>
        <linearGradient id="_Linear42" x1="0" y1="0" x2="1" y2="0.0262042" gradientUnits="userSpaceOnUse" gradientTransform="matrix(52.9036,63.4049,-65.1354,51.4981,133.088,262.58)"><stop offset="0" style="stop-color:black;stop-opacity:0.63"/><stop offset="1" style="stop-color:rgb(30,30,30);stop-opacity:0.63"/></linearGradient>
        <linearGradient id="_Linear43" x1="0" y1="0" x2="1" y2="0" gradientUnits="userSpaceOnUse" gradientTransform="matrix(114.012,42.34,-42.34,114.012,27.688,292.95)"><stop offset="0" style="stop-color:black;stop-opacity:0.63"/><stop offset="1" style="stop-color:rgb(11,11,11);stop-opacity:0.63"/></linearGradient>
        <linearGradient id="_Linear44" x1="0" y1="0" x2="1" y2="0" gradientUnits="userSpaceOnUse" gradientTransform="matrix(-3.17912,-21.3387,21.3387,-3.17912,282.152,284.128)"><stop offset="0" style="stop-color:rgb(117,117,117);stop-opacity:0.63"/><stop offset="0.56" style="stop-color:rgb(93,93,93);stop-opacity:0.63"/><stop offset="1" style="stop-color:black;stop-opacity:0.63"/></linearGradient>
        <linearGradient id="_Linear45" x1="0" y1="0" x2="1" y2="0" gradientUnits="userSpaceOnUse" gradientTransform="matrix(17.7869,11.0212,-11.0212,17.7869,130.679,248.542)"><stop offset="0" style="stop-color:black;stop-opacity:0.63"/><stop offset="1" style="stop-color:rgb(82,82,82);stop-opacity:0.63"/></linearGradient>
        <linearGradient id="_Linear46" x1="0" y1="0" x2="1" y2="0" gradientUnits="userSpaceOnUse" gradientTransform="matrix(-171.706,83.3321,83.3321,171.706,232.563,232.152)"><stop offset="0" style="stop-color:black;stop-opacity:0.42"/><stop offset="0.5" style="stop-color:rgb(62,62,62);stop-opacity:0.57"/><stop offset="1" style="stop-color:rgb(83,83,83);stop-opacity:0.63"/></linearGradient>
        <linearGradient id="_Linear47" x1="0" y1="0" x2="1" y2="0" gradientUnits="userSpaceOnUse" gradientTransform="matrix(12.6357,16.5679,-16.5679,12.6357,97.1963,268.752)"><stop offset="0" style="stop-color:black;stop-opacity:0.63"/><stop offset="0.52" style="stop-color:rgb(39,39,39);stop-opacity:0.46"/><stop offset="1" style="stop-color:rgb(54,54,54);stop-opacity:0.4"/></linearGradient>
        <linearGradient id="_Linear48" x1="0" y1="0" x2="1" y2="0" gradientUnits="userSpaceOnUse" gradientTransform="matrix(23.8813,-11.1403,-11.1403,-23.8813,42.5725,326.066)"><stop offset="0" style="stop-color:black;stop-opacity:1"/><stop offset="1" style="stop-color:rgb(77,77,77);stop-opacity:1"/></linearGradient>
        <radialGradient id="_Radial49" cx="0" cy="0" r="1" gradientUnits="userSpaceOnUse" gradientTransform="matrix(464.656,-126.331,117.919,433.715,2033.03,529.375)"><stop offset="0" style="stop-color:rgb(71,71,71);stop-opacity:0.9"/><stop offset="0.48" style="stop-color:rgb(58,58,58);stop-opacity:0.9"/><stop offset="0.86" style="stop-color:rgb(8,8,8);stop-opacity:0.89"/><stop offset="0.92" style="stop-color:rgb(29,26,22);stop-opacity:0.94"/><stop offset="0.95" style="stop-color:rgb(19,17,15);stop-opacity:0.8"/><stop offset="1" style="stop-color:rgb(18,10,1);stop-opacity:0.89"/></radialGradient>
        <radialGradient id="_Radial50" cx="0" cy="0" r="1" gradientUnits="userSpaceOnUse" gradientTransform="matrix(426.941,0,0,426.941,654.905,502.422)"><stop offset="0" style="stop-color:rgb(43,43,43);stop-opacity:0.82"/><stop offset="0.6" style="stop-color:rgb(35,35,35);stop-opacity:0.82"/><stop offset="0.81" style="stop-color:rgb(18,18,18);stop-opacity:0.82"/><stop offset="1" style="stop-color:black;stop-opacity:0.82"/></radialGradient>
        <filter id="_Effect51" filterUnits="userSpaceOnUse" x="318.142" y="117.669" width="66.4861" height="47.7001">
            <feGaussianBlur in="SourceGraphic" stdDeviation="0.690345"/>
        </filter>
        <filter id="_Effect52" filterUnits="userSpaceOnUse" x="317.809" y="117.336" width="67.1515" height="48.3655">
            <feGaussianBlur in="SourceGraphic" stdDeviation="0.745796"/>
        </filter>
    </defs>
</svg>
